<?xml version="1.0" encoding="UTF-8"?>
<svg version="1.1" viewBox="0 0 400 400" xmlns="http://www.w3.org/2000/svg">
<g fill-rule="evenodd">
<circle cx="200" cy="200" r="200" fill="#1ea4dd"></circle>
<path d="m152.1 50.264c-0.398 0.161-0.5 18.879-0.5 91.71 0 67.244-0.12 91.852-0.454 92.809-0.866 2.485 0.105 2.417-34.306 2.417-30.557 0-31.191 0.016-31.433 0.779-0.197 0.62 1.075 2.075 6.204 7.1 3.549 3.477 10.773 10.596 16.054 15.821s9.754 9.5 9.941 9.5 0.445 0.331 0.574 0.736c0.128 0.405 0.677 0.974 1.22 1.264s1.089 0.85 1.214 1.244c0.125 0.393 0.589 0.83 1.031 0.97 0.442 0.141 1 0.686 1.24 1.213s0.78 1.067 1.2 1.2 0.96 0.673 1.2 1.2 0.78 1.067 1.2 1.2 0.962 0.677 1.204 1.208c0.241 0.531 0.689 0.965 0.994 0.965s0.861 0.539 1.236 1.197c0.374 0.659 0.821 1.199 0.993 1.2 0.172 2e-3 4.52 4.188 9.663 9.303s9.682 9.606 10.088 9.98c0.405 0.374 0.944 0.887 1.197 1.14l1.32 1.32 2.34 2.34 1.2 1.2 1.2 1.2c0.374 0.374 0.86 0.861 1.08 1.083 18.643 18.77 39.578 38.634 40.658 38.578 1.004-0.052 6.963-5.486 13.627-12.427 0.377-0.393 0.827-0.848 1-1.013 0.173-0.164 8.353-8.264 18.178-18 26.905-26.661 64.754-64.03 73.477-72.545 7.932-7.743 9.37-9.475 8.234-9.911-0.334-0.128-15.109-0.227-32.833-0.221-33.064 0.012-32.814 0.022-34.236-1.333-0.053-0.05-0.188-41.581-0.3-92.291l-0.205-92.2-47-0.069c-25.85-0.038-47.225 0.022-47.5 0.133m81.618 11.305c2.43 0.924 2.281-5.266 2.275 94.388-3e-3 49.911 0.1 91.02 0.229 91.355 0.397 1.035 1.343 1.077 24.462 1.083l22.485 5e-3 0.821 0.882c0.997 1.07 1.007 1.038-1.032 3.187-2.489 2.623-66.008 65.339-67.492 66.638-0.184 0.161-1.084 1.056-2 1.988-6.818 6.939-12.266 12.025-13.361 12.47-1.582 0.645-0.656 1.413-13.243-10.975-5.136-5.055-13.686-13.462-19-18.683-5.314-5.22-9.97-9.81-10.347-10.2-0.377-0.389-0.827-0.837-1-0.995s-5.697-5.603-12.274-12.1c-6.578-6.497-12.117-11.812-12.309-11.812s-0.545-0.43-0.785-0.956c-0.239-0.526-0.85-1.145-1.356-1.376-0.507-0.23-1.031-0.763-1.164-1.183s-0.673-0.96-1.2-1.2-1.075-0.807-1.219-1.261c-0.144-0.453-0.447-0.824-0.674-0.824s-2.637-2.264-5.356-5.03c-8.556-8.706-9.789-8.17 18.79-8.17 18.782 0 22.607-0.093 23.256-0.568 0.763-0.558 0.779-2.078 0.976-92.5 0.21-96.649 0.138-93.073 1.905-94.103 0.901-0.525 67.237-0.583 68.613-0.06" fill="#f9fbfb"/>
</g>
</svg>
