<?xml version="1.0" encoding="UTF-8"?>
<svg version="1.1" width="400" height="400" viewBox="0 0 400 400" xmlns="http://www.w3.org/2000/svg">
<g fill-rule="evenodd">
<circle cx="200" cy="200" r="200" fill="#f3db4c"></circle>
<path d="m242.8 122.04c-1.43 0.183-4.58 0.965-7 1.737s-5.407 1.597-6.637 1.832c-1.283 0.244-3.15 1.014-4.376 1.804-1.176 0.758-2.979 1.657-4.006 1.998-1.028 0.342-2.569 1.218-3.425 1.949-0.856 0.73-2.158 1.637-2.895 2.016-1.173 0.604-2.995 2.34-8.218 7.829-0.733 0.77-1.994 2.66-2.802 4.2s-1.808 3.34-2.222 4c-0.956 1.526-3.612 12.31-3.884 15.772-0.348 4.438 2.559 17.036 4.45 19.283 0.583 0.693 1.524 2.178 2.092 3.302 1.879 3.717 7.748 9.734 12.123 12.43 0.99 0.61 2.25 1.528 2.8 2.04 0.55 0.511 1.99 1.394 3.2 1.962s2.795 1.467 3.523 1.997c0.727 0.531 2.257 1.267 3.4 1.637 1.142 0.37 3.337 1.344 4.877 2.165s3.88 1.721 5.2 2.001c1.32 0.279 3.684 1.187 5.253 2.016 1.568 0.83 3.59 1.633 4.492 1.786 0.902 0.152 2.85 1.071 4.328 2.043 1.479 0.971 2.932 1.766 3.228 1.766 2.261 0 7.048 6.863 8.435 12.092 1.486 5.607-3.701 13.577-10.336 15.879-1.87 0.648-4.21 1.501-5.2 1.894-2.778 1.103-15.013 0.959-19.2-0.226-1.65-0.467-5.43-1.307-8.4-1.866-3.763-0.709-6.128-1.39-7.8-2.248-9.332-4.789-12.229-3.044-13.977 8.42-0.348 2.279-1.152 5.444-1.789 7.032-2.629 6.566-2.077 8.998 2.366 10.434 1.21 0.391 3.19 1.218 4.4 1.837 1.369 0.702 3.635 1.363 6 1.752 2.09 0.343 5.6 1.158 7.8 1.812 9.496 2.818 32.338 2.806 41.168-0.022 2.005-0.642 5.08-1.442 6.833-1.778 1.977-0.378 3.892-1.048 5.044-1.764 1.021-0.634 2.913-1.547 4.206-2.029 1.292-0.481 2.799-1.292 3.349-1.803 0.55-0.51 1.99-1.488 3.2-2.173 3.739-2.116 10.224-9.002 11.702-12.423 0.432-1.001 1.384-2.72 2.116-3.82 1.007-1.514 1.538-3.021 2.185-6.2 0.47-2.31 1.144-5.28 1.497-6.6 1.034-3.86 0.879-9.992-0.373-14.8-0.573-2.2-1.267-5.133-1.543-6.519-0.323-1.624-0.911-3.034-1.655-3.971-0.635-0.798-1.485-2.2-1.89-3.115-1.638-3.704-9.474-11.664-13.529-13.743-0.83-0.426-1.941-1.236-2.467-1.8-0.527-0.564-1.834-1.317-2.904-1.672-1.07-0.356-2.817-1.246-3.882-1.978-1.065-0.733-3.268-1.723-4.897-2.2-1.628-0.478-3.59-1.294-4.36-1.814s-2.84-1.328-4.6-1.797c-1.76-0.468-4.03-1.354-5.043-1.969-1.014-0.615-3.289-1.6-5.054-2.188-1.766-0.588-3.546-1.441-3.957-1.895-0.41-0.454-1.556-1.243-2.546-1.753-2.73-1.406-5.846-4.716-6.612-7.023-0.357-1.075-0.815-2.056-1.019-2.182-0.468-0.289-0.487-5.092-0.022-5.601 0.191-0.209 0.671-1.248 1.065-2.308 0.935-2.51 4.103-5.625 6.768-6.655 1.111-0.429 3.19-1.282 4.62-1.895 4.139-1.776 15.419-1.695 21.8 0.156 2.42 0.702 5.915 1.559 7.768 1.904 3.326 0.619 3.828 0.807 7.099 2.658 2.817 1.594 5.725-3.083 7.56-12.162 0.525-2.596 1.34-5.566 1.81-6.6 2.495-5.476 2.313-6.409-1.775-9.068-1.975-1.285-3.292-1.769-6.853-2.515-2.425-0.509-5.669-1.357-7.209-1.886-4.835-1.659-24.774-2.48-33.4-1.374m-101.4 2.627c-0.66 0.349-1.614 1.014-2.121 1.476l-0.921 0.841 0.263 48.61c0.262 48.435 0.259 48.63-0.597 54-1.432 8.976-1.583 9.316-6.424 14.48-5.094 5.435-15.569 7.159-26.537 4.367l-5.136-1.307-0.91 0.855c-0.673 0.632-1.037 1.66-1.394 3.936-0.266 1.694-1.015 5.561-1.665 8.593-2.55 11.902-2.241 13.597 2.842 15.581 4.952 1.933 6.542 2.1 20 2.103 13.077 3e-3 15.315-0.21 18.925-1.803 0.921-0.407 3.26-1.136 5.197-1.621s4.097-1.307 4.8-1.826c0.703-0.52 2.078-1.329 3.057-1.799 4.646-2.233 12.156-10.049 14.408-14.994 0.612-1.345 1.319-2.572 1.569-2.727 0.682-0.421 1.437-2.456 2.223-5.99 0.387-1.74 1.063-3.99 1.503-5 2.081-4.784 2.045-3.773 2.205-61.652l0.148-53.815-0.933-1.385-0.934-1.385-14.184-0.087c-12.302-0.075-14.343-2e-3 -15.384 0.549" fill="#383834"/>
</g>
</svg>
