<?xml version="1.0" encoding="UTF-8"?>
<svg width="400" height="483.17" version="1.1" viewBox="0, 0, 400,483.1746031746032" xmlns="http://www.w3.org/2000/svg">
<g fill-rule="evenodd">
<path d="m200 60.8c0 57.619-0.037 60.803-0.7 60.851-0.385 0.028 0.392 0.193 1.726 0.367 1.334 0.175 3.404 0.613 4.6 0.974 3.168 0.956 2.647 0.824 31.774 8.013 14.74 3.638 27.43 6.786 28.2 6.996 0.77 0.209 2.57 0.691 4 1.071l2.6 0.691-1.576 0.328c-2.099 0.437-2.463 0.859-0.424 0.492 3.265-0.588 3 0.928 3-17.173 0-10.344 0.144-16.252 0.4-16.41 0.702-0.434 0.536-71-0.167-71-0.311 0-0.626-0.135-0.7-0.3-0.168-0.379-7.636-4.1-8.228-4.1-0.241 0-0.498-0.138-0.572-0.307-0.161-0.372-5.259-2.893-5.849-2.893-0.229 0-0.477-0.138-0.551-0.307-0.166-0.384-5.268-2.893-5.882-2.893-0.248 0-0.451-0.138-0.451-0.306 0-0.321-2.92-1.694-3.603-1.694-0.218 0-0.397-0.166-0.397-0.368 0-0.203-0.54-0.487-1.2-0.632s-1.2-0.421-1.2-0.614c0-0.192-0.628-0.468-1.396-0.612-0.769-0.144-1.298-0.422-1.177-0.618s-0.15-0.356-0.603-0.356-0.824-0.166-0.824-0.368c0-0.203-0.54-0.487-1.2-0.632s-1.2-0.429-1.2-0.632c0-0.202-0.179-0.368-0.397-0.368-0.646 0-3.603-1.365-3.603-1.663 0-0.15-0.54-0.392-1.2-0.537s-1.2-0.415-1.2-0.6-0.54-0.455-1.2-0.6-1.2-0.421-1.2-0.614c0-0.192-0.63-0.468-1.4-0.612-0.77-0.145-1.4-0.423-1.4-0.619 0-0.195-0.27-0.355-0.6-0.355s-0.6-0.166-0.6-0.368c0-0.203-0.54-0.487-1.2-0.632s-1.2-0.415-1.2-0.6-0.54-0.455-1.2-0.6-1.2-0.429-1.2-0.632c0-0.202-0.255-0.368-0.568-0.368-0.574 0-3.064-1.194-3.432-1.646-0.11-0.135-0.65-0.385-1.2-0.554s-1.09-0.419-1.2-0.554c-0.463-0.569-2.062-1.255-2.416-1.036-0.211 0.13-0.384 0.047-0.384-0.186s-0.27-0.424-0.6-0.424-0.6-0.166-0.6-0.368c0-0.203-0.54-0.487-1.2-0.632s-1.2-0.415-1.2-0.6-0.585-0.463-1.3-0.618c-0.715-0.156-1.39-0.407-1.5-0.56-0.339-0.47-3.813-2.022-4.526-2.022-0.629 0-0.674 4.066-0.674 60.8m-167.6 180.85v157.65l2.495-0.282c1.373-0.155 2.588-0.412 2.7-0.571 0.113-0.159 1.375-0.51 2.805-0.78 4.58-0.866 4.993-0.965 5.41-1.295 0.225-0.178 1.395-0.449 2.6-0.603 1.204-0.153 2.37-0.414 2.59-0.58 0.22-0.167 1.345-0.429 2.5-0.585 1.154-0.155 2.187-0.424 2.294-0.598 0.154-0.248 2.466-0.695 5.073-0.98 0.146-0.016 0.401-0.164 0.566-0.329s0.8-0.3 1.41-0.3 1.216-0.172 1.346-0.382c0.129-0.209 1.314-0.503 2.632-0.652s2.488-0.419 2.6-0.6 1.278-0.451 2.591-0.599c1.313-0.149 2.388-0.427 2.388-0.619 0-0.191 0.529-0.348 1.176-0.348s1.279-0.166 1.405-0.369c0.125-0.202 1.396-0.493 2.823-0.646 1.428-0.153 2.596-0.414 2.596-0.58s1.123-0.429 2.496-0.584 2.678-0.425 2.9-0.6c0.466-0.365 3.376-0.992 4.074-0.877 0.258 0.042 0.584-0.108 0.723-0.333 0.14-0.226 0.874-0.411 1.631-0.411s1.376-0.166 1.376-0.368c0-0.203 1.168-0.493 2.595-0.646s2.497-0.437 2.377-0.632c-0.121-0.195 0.393-0.354 1.141-0.354s2.243-0.268 3.323-0.596c1.08-0.327 2.369-0.597 2.864-0.6 0.495-2e-3 0.9-0.166 0.9-0.365 0-0.198 1.125-0.49 2.5-0.648s2.59-0.412 2.7-0.564c0.11-0.153 1.19-0.48 2.4-0.727s2.92-0.635 3.8-0.863c0.88-0.227 2.59-0.637 3.8-0.911 2.985-0.675 2.787 0.584 2.794-17.777 7e-3 -18.643-0.341-17.028 3.806-17.695 1.54-0.248 3.7-0.618 4.8-0.822 3.203-0.596 8.924-1.638 12.6-2.294 4.05-0.722 8.502-1.529 11.8-2.137 1.32-0.244 3.93-0.719 5.8-1.056 5.381-0.971 9.208-1.666 11.8-2.144 1.32-0.244 3.93-0.719 5.8-1.056 14.994-2.705 16-2.898 16.411-3.152 0.24-0.148 0.389-5.436 0.389-13.761v-13.52l2.1-0.24c1.155-0.132 4.26-0.512 6.9-0.844 2.64-0.333 7.05-0.885 9.8-1.227 2.75-0.343 6.35-0.793 8-1.001s5.16-0.644 7.8-0.969c7.309-0.9 17.454-2.168 22.8-2.849 2.64-0.337 6.24-0.794 8-1.016 1.76-0.223 4.19-0.533 5.4-0.691l2.2-0.286 0.102-51.373c0.055-28.255-0.035-51.504-0.2-51.664-0.362-0.35-5.359-1.065-19.302-2.764-1.65-0.201-5.16-0.647-7.8-0.992s-6.15-0.791-7.8-0.992c-2.747-0.335-15.441-1.961-26.8-3.432-2.53-0.328-5.5-0.69-6.6-0.806-1.1-0.115-2.587-0.298-3.305-0.407l-1.306-0.197 0.106-13.463 0.105-13.463 1-0.262c0.673-0.176 0.28-0.269-1.2-0.286-1.854-0.02-7.484-0.945-17.4-2.857-2.513-0.484-6.698-1.256-16.6-3.061-4.29-0.782-9.24-1.685-11-2.008s-4.73-0.865-6.6-1.204c-1.87-0.34-4.21-0.768-5.2-0.951-3.335-0.619-8.983-1.628-11.4-2.037-1.32-0.223-2.985-0.614-3.7-0.868l-1.3-0.463v-16.039c0-16.699-0.03-17-1.685-17-0.399 0-1.038-0.157-1.42-0.35-0.86-0.433-6.041-1.658-6.995-1.653-0.385 1e-3 -0.7-0.163-0.7-0.365 0-0.203-1.17-0.494-2.6-0.647s-2.6-0.416-2.6-0.585-1.17-0.432-2.6-0.585-2.6-0.444-2.6-0.647c0-0.202-0.529-0.368-1.176-0.368s-1.275-0.159-1.395-0.353-1.388-0.478-2.819-0.631-2.694-0.428-2.806-0.61c-0.113-0.182-1.15-0.458-2.304-0.613-1.155-0.156-2.28-0.42-2.5-0.588-0.22-0.167-0.94-0.399-1.6-0.514-0.66-0.116-1.65-0.329-2.2-0.475-0.55-0.145-1.675-0.367-2.5-0.493-0.825-0.125-1.5-0.385-1.5-0.576s-0.135-0.318-0.3-0.283c-0.736 0.157-5.266-0.595-5.11-0.848 0.096-0.156-0.042-0.292-0.308-0.303-1.424-0.062-4.536-0.638-4.882-0.905-0.22-0.169-0.94-0.412-1.6-0.54-4.281-0.831-6.025-1.252-6.2-1.495-0.11-0.152-1.325-0.406-2.7-0.564s-2.5-0.43-2.5-0.605c0-0.174-0.585-0.406-1.3-0.516-0.715-0.109-1.75-0.323-2.3-0.476s-1.855-0.376-2.9-0.496-1.9-0.357-1.9-0.528c0-0.17-1.08-0.435-2.4-0.588s-2.4-0.42-2.4-0.593c0-0.172-1.17-0.439-2.6-0.592s-2.6-0.444-2.6-0.647c0-0.202-0.529-0.368-1.176-0.368s-1.282-0.17-1.41-0.377-1.488-0.5-3.023-0.651c-1.535-0.152-2.791-0.432-2.791-0.624 0-0.191-0.45-0.348-1-0.348h-1v157.65m335.2-2e-3v157.65l1.25-0.25c0.688-0.137 1.418-0.25 1.624-0.25 0.205 0 0.262-0.18 0.126-0.4s0.078-0.406 0.476-0.414c0.945-0.017 3.804-1.373 3.512-1.665-0.124-0.124 0.418-0.346 1.204-0.493 0.787-0.148 1.325-0.439 1.196-0.648-0.13-0.209 0.123-0.38 0.56-0.38s1.033-0.225 1.323-0.5c0.291-0.275 0.871-0.559 1.289-0.631 1.147-0.198 3.455-1.521 3.163-1.813-0.141-0.141 0.089-0.261 0.51-0.268 0.945-0.015 6.243-2.579 5.945-2.877-0.118-0.118 0.428-0.336 1.214-0.483 0.787-0.148 1.325-0.439 1.196-0.648-0.13-0.209 0.039-0.38 0.375-0.38 0.666 0 3.513-1.236 3.841-1.668 0.112-0.148 0.696-0.392 1.297-0.543 0.602-0.151 1.007-0.415 0.901-0.586-0.106-0.172 0.165-0.406 0.604-0.52 0.793-0.208 0.796-0.746 0.793-142.43l-3e-3 -142.22-1.395-0.261c-0.767-0.144-1.295-0.422-1.174-0.618s-0.018-0.356-0.309-0.356c-0.292 0-1.202-0.36-2.024-0.801-0.822-0.44-1.494-0.697-1.494-0.571s-0.283-0.054-0.629-0.399c-0.345-0.346-0.975-0.629-1.4-0.629-0.424 0-0.771-0.145-0.771-0.323 0-0.31-2.939-1.766-3.404-1.687-0.123 0.021-0.501-0.238-0.839-0.576s-0.884-0.614-1.214-0.614-0.87-0.27-1.2-0.6-0.947-0.6-1.372-0.6c-0.424 0-0.771-0.145-0.771-0.323 0-0.308-2.746-1.677-3.363-1.677-0.162 0-0.564-0.27-0.894-0.6s-0.947-0.6-1.372-0.6c-0.424 0-0.771-0.162-0.771-0.361 0-0.443-2.241-1.264-2.566-0.94-0.129 0.129-0.234 0.024-0.234-0.232 0-0.257-0.27-0.467-0.6-0.467s-0.6-0.145-0.6-0.323c0-0.354-2.788-1.677-3.534-1.677-0.354 0-0.466 38.01-0.466 157.65m-172.8-118.85c-0.824 0.264-0.859 0.326-0.2 0.354 0.44 0.019 1.07-0.141 1.4-0.354 0.701-0.453 0.214-0.453-1.2 0m-4.8 1.218c-0.438 0.297-0.276 0.334 0.6 0.138 1.471-0.329 1.79-0.558 0.767-0.55-0.422 3e-3 -1.037 0.189-1.367 0.412m-3.52 0.777c-0.726 0.172-1.433 0.425-1.571 0.563-0.338 0.338 2.335-0.182 3.091-0.601 0.716-0.397 0.268-0.386-1.52 0.038m-4.88 1.205l-1 0.32 1 0.034c0.55 0.019 1.27-0.141 1.6-0.354 0.764-0.494-0.058-0.494-1.6 0m-4.6 1.2c-1.019 0.438 0.032 0.438 1.4 0 0.804-0.257 0.843-0.323 0.2-0.332-0.44-6e-3 -1.16 0.143-1.6 0.332m-4.6 1.218c-0.438 0.297-0.276 0.334 0.6 0.138 1.471-0.329 1.79-0.558 0.767-0.55-0.422 3e-3 -1.037 0.189-1.367 0.412m-3.6 0.782c-0.804 0.257-0.843 0.323-0.2 0.332 0.44 6e-3 1.16-0.143 1.6-0.332 1.019-0.438-0.032-0.438-1.4 0m-4.6 1.2c-0.504 0.217-0.578 0.344-0.2 0.344 0.33 0 0.96-0.155 1.4-0.344 0.504-0.217 0.578-0.344 0.2-0.344-0.33 0-0.96 0.155-1.4 0.344m-5 1.2c-0.764 0.494 0.058 0.494 1.6 0l1-0.32-1-0.034c-0.55-0.019-1.27 0.141-1.6 0.354m-3.8 1.015c-1.577 0.546-1.58 0.55-0.2 0.317 1.632-0.275 3.3-0.884 2.4-0.876-0.33 3e-3 -1.32 0.255-2.2 0.559m-4.2 0.985c-0.804 0.257-0.843 0.323-0.2 0.332 0.44 6e-3 1.16-0.143 1.6-0.332 1.019-0.438-0.032-0.438-1.4 0m-4.8 1.2c-0.795 0.514 0.204 0.514 1.4 0l0.8-0.344-0.8-0.022c-0.44-0.012-1.07 0.153-1.4 0.366m-3.52 0.795c-0.726 0.172-1.433 0.425-1.571 0.563-0.297 0.297 2.145-0.143 3.291-0.593 1.02-0.401 0.024-0.383-1.72 0.03m-5.48 1.412l-1.6 0.545 1.6-0.233c0.88-0.128 1.96-0.376 2.4-0.551l0.8-0.317-0.8 5e-3c-0.44 3e-3 -1.52 0.251-2.4 0.551m-3.8 0.993c-0.795 0.514 0.204 0.514 1.4 0l0.8-0.344-0.8-0.022c-0.44-0.012-1.07 0.153-1.4 0.366m-3.52 0.795c-0.726 0.172-1.433 0.425-1.571 0.563-0.338 0.338 2.335-0.182 3.091-0.601 0.716-0.397 0.268-0.386-1.52 0.038m134.72 2.405c-1.367 0.288-1.372 0.295-0.2 0.319 0.66 0.014 1.56-0.13 2-0.319 0.962-0.413 0.164-0.413-1.8 0m-6.4 1.2c-1.344 0.431 0.108 0.431 1.8 0 1.078-0.274 1.098-0.306 0.2-0.313-0.55-4e-3 -1.45 0.137-2 0.313m-6.6 1.21c-0.534 0.237-0.202 0.276 1 0.117 0.99-0.131 1.875-0.303 1.967-0.383 0.347-0.301-2.203-0.072-2.967 0.266m-4.6 0.79c-1.357 0.286-1.363 0.295-0.2 0.307 0.66 8e-3 1.65-0.131 2.2-0.307 1.312-0.42-4e-3 -0.42-2 0m-6.4 1.2c-0.792 0.254-0.833 0.32-0.2 0.32 0.44 0 1.25-0.144 1.8-0.32 0.792-0.254 0.833-0.32 0.2-0.32-0.44 0-1.25 0.144-1.8 0.32m-6.4 1.2c-1.344 0.431 0.108 0.431 1.8 0 1.078-0.274 1.098-0.306 0.2-0.313-0.55-4e-3 -1.45 0.137-2 0.313m-6.6 1.21c-0.534 0.237-0.202 0.276 1 0.117 0.99-0.131 1.875-0.303 1.967-0.383 0.347-0.301-2.203-0.072-2.967 0.266m-4.4 0.79c-1.078 0.274-1.098 0.306-0.2 0.313 0.55 4e-3 1.45-0.137 2-0.313 1.344-0.431-0.108-0.431-1.8 0m-6.6 1.2c-1.344 0.431 0.108 0.431 1.8 0 1.078-0.274 1.098-0.306 0.2-0.313-0.55-4e-3 -1.45 0.137-2 0.313m-11 2c-1.078 0.274-1.098 0.306-0.2 0.313 0.55 4e-3 1.45-0.137 2-0.313 1.344-0.431-0.108-0.431-1.8 0m-5.8 89.256v60.856l-2.1-0.244c-1.155-0.135-4.26-0.516-6.9-0.848-7.601-0.956-14.516-1.809-18.2-2.245-1.87-0.221-4.57-0.565-6-0.764s-4.31-0.574-6.4-0.834-10.46-1.31-18.6-2.333l-14.8-1.861-0.102-51.37c-0.055-28.253 0.035-51.505 0.2-51.669 0.261-0.258 9.374-1.558 19.302-2.752 1.65-0.199 5.16-0.643 7.8-0.988s6.15-0.791 7.8-0.992c5.827-0.709 19.041-2.392 22.2-2.828 5.699-0.786 14.381-1.904 15.1-1.945 0.664-0.037 0.7 3.111 0.7 60.817m71.6 102.31c-0.33 0.184-1.32 0.459-2.2 0.611-0.88 0.151-2.14 0.442-2.8 0.645-1.507 0.464-7.476 1.951-9.6 2.391-0.88 0.182-3.04 0.718-4.8 1.191s-3.92 1.017-4.8 1.209-2.77 0.638-4.2 0.992c-1.43 0.353-3.23 0.792-4 0.975s-2.57 0.637-4 1.008c-3.587 0.931-7.098 1.792-9 2.207-0.88 0.192-3.04 0.736-4.8 1.209s-3.92 1.017-4.8 1.209-2.68 0.614-4 0.937c-1.32 0.324-3.93 0.962-5.8 1.419-1.87 0.456-4.165 1.034-5.1 1.284l-1.7 0.455v60.748c0 56.686 0.045 60.748 0.674 60.748 0.713 0 4.187-1.552 4.526-2.022 0.11-0.153 0.785-0.404 1.5-0.56 0.715-0.155 1.3-0.433 1.3-0.618s0.54-0.455 1.2-0.6 1.2-0.429 1.2-0.632c0-0.202 0.27-0.368 0.6-0.368s0.6-0.191 0.6-0.424 0.173-0.316 0.384-0.186c0.354 0.219 1.953-0.467 2.416-1.036 0.11-0.135 0.65-0.385 1.2-0.554s1.09-0.419 1.2-0.554c0.368-0.452 2.858-1.646 3.432-1.646 0.313 0 0.568-0.166 0.568-0.368 0-0.203 0.54-0.487 1.2-0.632s1.2-0.415 1.2-0.6 0.54-0.455 1.2-0.6 1.2-0.429 1.2-0.632c0-0.202 0.27-0.368 0.6-0.368s0.6-0.16 0.6-0.355c0-0.196 0.63-0.474 1.4-0.619 0.77-0.144 1.4-0.42 1.4-0.612 0-0.193 0.54-0.469 1.2-0.614s1.2-0.415 1.2-0.6 0.54-0.455 1.2-0.6 1.2-0.387 1.2-0.537c0-0.298 2.957-1.663 3.603-1.663 0.218 0 0.397-0.166 0.397-0.368 0-0.203 0.54-0.487 1.2-0.632s1.2-0.429 1.2-0.632c0-0.202 0.371-0.368 0.824-0.368s0.724-0.16 0.603-0.356 0.408-0.474 1.177-0.618c0.768-0.144 1.396-0.42 1.396-0.612 0-0.193 0.54-0.469 1.2-0.614s1.2-0.429 1.2-0.632c0-0.202 0.198-0.368 0.44-0.368 0.535 0 3.282-1.254 3.56-1.625 0.11-0.147 0.65-0.406 1.2-0.575s1.09-0.42 1.2-0.556c0.326-0.405 5.407-2.844 5.924-2.844 0.262 0 0.476-0.166 0.476-0.368 0-0.203 0.54-0.487 1.2-0.632s1.2-0.429 1.2-0.632c0-0.202 0.36-0.368 0.8-0.368s0.8-0.18 0.8-0.4 0.212-0.4 0.472-0.4c0.615 0 8.087-3.709 8.261-4.1 0.074-0.165 0.389-0.3 0.7-0.3 0.699 0 0.868-69.539 0.172-70.235-0.245-0.245-0.436-6.651-0.5-16.747-0.105-16.375-0.164-17.007-1.505-16.256" fill="#e35444"/>
<path d="m197.3 0.499c-0.715 0.229-1.3 0.571-1.3 0.759s-0.27 0.342-0.6 0.342-0.6 0.16-0.6 0.355c0 0.196-0.63 0.474-1.4 0.619-0.77 0.144-1.4 0.42-1.4 0.612 0 0.193-0.54 0.469-1.2 0.614s-1.2 0.387-1.2 0.537c0 0.298-2.957 1.663-3.603 1.663-0.218 0-0.397 0.166-0.397 0.368 0 0.203-0.54 0.487-1.2 0.632s-1.2 0.415-1.2 0.6-0.54 0.455-1.2 0.6-1.2 0.387-1.2 0.537c0 0.298-2.957 1.663-3.603 1.663-0.218 0-0.397 0.166-0.397 0.368 0 0.203-0.54 0.487-1.2 0.632s-1.2 0.429-1.2 0.632c0 0.202-0.27 0.368-0.6 0.368s-0.6 0.16-0.6 0.355c0 0.196-0.63 0.474-1.4 0.619-0.77 0.144-1.4 0.415-1.4 0.601s-0.493 0.462-1.096 0.613c-0.603 0.152-1.188 0.396-1.3 0.544-0.35 0.459-2.84 1.668-3.436 1.668-0.313 0-0.568 0.166-0.568 0.368 0 0.203-0.54 0.487-1.2 0.632s-1.2 0.415-1.2 0.6-0.54 0.455-1.2 0.6-1.2 0.429-1.2 0.632c0 0.202-0.36 0.368-0.8 0.368s-0.8 0.166-0.8 0.368c0 0.203-0.54 0.487-1.2 0.632s-1.2 0.415-1.2 0.6-0.54 0.455-1.2 0.6-1.2 0.429-1.2 0.632c0 0.202-0.179 0.368-0.397 0.368-0.646 0-3.603 1.365-3.603 1.663 0 0.15-0.54 0.392-1.2 0.537s-1.2 0.415-1.2 0.6-0.54 0.455-1.2 0.6-1.2 0.429-1.2 0.632c0 0.202-0.36 0.368-0.8 0.368s-0.8 0.166-0.8 0.368c0 0.203-0.54 0.487-1.2 0.632s-1.2 0.415-1.2 0.6-0.54 0.455-1.2 0.6-1.2 0.429-1.2 0.632c0 0.202-0.27 0.368-0.6 0.368s-0.6 0.16-0.6 0.355c0 0.196-0.63 0.474-1.4 0.619-0.77 0.144-1.4 0.42-1.4 0.612 0 0.193-0.54 0.469-1.2 0.614s-1.2 0.429-1.2 0.632c0 0.202-0.179 0.368-0.397 0.368-0.683 0-3.603 1.373-3.603 1.694 0 0.168-0.27 0.306-0.6 0.306-0.733 0-0.931 70.548-0.2 71 0.256 0.158 0.4 6.086 0.4 16.47v16.223l0.9-0.223c0.495-0.123 1.98-0.487 3.3-0.809s3.48-0.884 4.8-1.249 3.12-0.823 4-1.017 2.77-0.642 4.2-0.996c1.43-0.353 3.23-0.79 4-0.97s3.65-0.905 6.4-1.612 5.72-1.437 6.6-1.622c0.88-0.184 3.04-0.722 4.8-1.195s3.92-1.008 4.8-1.189 3.76-0.897 6.4-1.591 5.52-1.423 6.4-1.62 2.68-0.623 4-0.946c1.32-0.324 3.93-0.962 5.8-1.419 1.87-0.456 4.165-1.034 5.1-1.284l1.7-0.455v-60.748c0-67.828 0.297-61.211-2.7-60.249m-166.5 83.869c0 0.203-0.54 0.487-1.2 0.632s-1.2 0.387-1.2 0.537c0 0.298-2.957 1.663-3.603 1.663-0.218 0-0.397 0.166-0.397 0.368 0 0.203-0.54 0.487-1.2 0.632s-1.2 0.429-1.2 0.632c0 0.202-0.179 0.368-0.397 0.368-0.646 0-3.603 1.365-3.603 1.663 0 0.15-0.54 0.392-1.2 0.537s-1.2 0.429-1.2 0.632c0 0.202-0.347 0.368-0.771 0.368-0.425 0-1.042 0.27-1.372 0.6s-0.732 0.6-0.894 0.6c-0.617 0-3.363 1.369-3.363 1.677 0 0.178-0.347 0.323-0.771 0.323-0.425 0-1.042 0.27-1.372 0.6s-0.765 0.6-0.967 0.6c-0.43 0-2.998 1.228-3.29 1.574-0.11 0.13-0.74 0.418-1.4 0.641l-1.2 0.404-0.101 142.1c-0.095 135.07-0.065 142.12 0.6 142.36 0.386 0.142 0.791 0.384 0.901 0.536 0.342 0.474 5.143 2.781 5.789 2.781 0.336 0 0.611 0.177 0.611 0.392 0 0.216 0.489 0.515 1.087 0.665 0.597 0.15 1.432 0.595 1.854 0.988s1.318 0.836 1.99 0.984c0.673 0.148 1.472 0.517 1.775 0.82s0.816 0.551 1.139 0.551c0.324 0 0.965 0.351 1.426 0.78 0.46 0.429 1.388 0.901 2.06 1.049 0.673 0.148 1.472 0.517 1.775 0.82s0.821 0.551 1.151 0.551 0.87 0.27 1.2 0.6 0.947 0.6 1.372 0.6c0.424 0 0.771 0.147 0.771 0.326 0 0.352 2.561 1.674 3.242 1.674 0.228 0 0.685 0.27 1.015 0.6s1.037 0.6 1.572 0.6h0.971v-157.6c0-157.33-1e-3 -157.6-0.8-157.6-0.44 0-0.8 0.166-0.8 0.368m334.8-0.024c0 0.189-0.985 0.446-2.188 0.57-2.115 0.218-4.51 0.835-5.867 1.51-0.36 0.179-1.755 0.45-3.1 0.603-1.345 0.152-2.445 0.412-2.445 0.579 0 0.166-1.035 0.431-2.3 0.589-1.265 0.157-2.39 0.412-2.5 0.565-0.19 0.265-3.65 1.017-6.9 1.501-0.825 0.123-1.5 0.37-1.5 0.549 0 0.18-1.17 0.452-2.6 0.605s-2.6 0.42-2.6 0.592c0 0.173-1.08 0.44-2.401 0.593-1.32 0.153-2.501 0.441-2.623 0.639-0.123 0.199-0.753 0.361-1.4 0.361s-1.176 0.157-1.176 0.348c0 0.192-1.119 0.475-2.486 0.63s-2.672 0.403-2.9 0.552c-0.228 0.148-1.404 0.479-2.614 0.735s-3.37 0.763-4.8 1.127-3.275 0.759-4.1 0.877-1.5 0.358-1.5 0.534c0 0.175-1.08 0.444-2.401 0.597-1.32 0.153-2.492 0.427-2.604 0.608s-1.374 0.455-2.805 0.608-2.699 0.437-2.819 0.631-0.748 0.353-1.395 0.353-1.176 0.166-1.176 0.368c0 0.203-1.17 0.494-2.6 0.647s-2.6 0.42-2.6 0.592c0 0.173-1.08 0.44-2.401 0.593-1.32 0.153-2.501 0.441-2.623 0.639-0.123 0.199-0.723 0.361-1.333 0.361s-1.245 0.135-1.41 0.3-0.42 0.313-0.566 0.329c-2.808 0.307-4.867 0.737-4.867 1.017 0 0.195-0.414 0.354-0.92 0.354-1.879 0-1.88 0.011-1.88 17.066 0 18.129 0.287 16.596-3.2 17.102-0.99 0.144-2.52 0.425-3.4 0.624-0.88 0.198-3.31 0.654-5.4 1.012-2.09 0.357-4.61 0.81-5.6 1.005-1.71 0.337-4.75 0.888-12.4 2.246-1.87 0.332-4.66 0.85-6.2 1.151-1.54 0.302-4.42 0.839-6.4 1.194s-4.5 0.821-5.6 1.036c-1.996 0.389-14.577 2.679-20.984 3.818-1.861 0.331-3.526 0.69-3.7 0.798-0.174 0.107-0.316 6.206-0.316 13.553v13.359l1.3 0.196c0.715 0.109 2.2 0.291 3.3 0.406 1.1 0.116 4.07 0.478 6.6 0.806 11.359 1.471 24.053 3.097 26.8 3.432 1.65 0.201 5.16 0.647 7.8 0.992s6.15 0.791 7.8 0.992c13.943 1.699 18.94 2.414 19.302 2.764 0.165 0.16 0.255 23.409 0.2 51.664l-0.102 51.373-2.2 0.286c-1.21 0.158-3.64 0.468-5.4 0.691-1.76 0.222-5.36 0.679-8 1.016-5.346 0.681-15.491 1.949-22.8 2.849-2.64 0.325-6.15 0.761-7.8 0.969s-5.205 0.653-7.9 0.989-7.105 0.888-9.8 1.227-5.845 0.724-7 0.856l-2.1 0.24v-60.856c0-33.471-0.045-60.856-0.101-60.856s-3.611 0.451-7.9 1.002c-4.289 0.552-8.519 1.095-9.399 1.208-5.33 0.685-18.061 2.293-20.6 2.602-1.65 0.201-5.16 0.647-7.8 0.992s-6.15 0.789-7.8 0.988c-9.928 1.194-19.041 2.494-19.302 2.752-0.165 0.164-0.255 23.416-0.2 51.669l0.102 51.37 14.8 1.861c8.14 1.023 16.51 2.073 18.6 2.333s4.97 0.635 6.4 0.834 4.13 0.543 6 0.764c3.684 0.436 10.599 1.289 18.2 2.245 2.64 0.332 5.745 0.713 6.9 0.848l2.1 0.244v13.52c0 8.325-0.149 13.613-0.389 13.761-0.365 0.226-2.084 0.566-10.411 2.064-4.771 0.858-8.994 1.624-11.8 2.142-1.32 0.244-3.93 0.719-5.8 1.056-5.381 0.971-9.208 1.666-11.8 2.144-2.484 0.458-7.002 1.276-12.2 2.207-3.367 0.603-9.181 1.664-12.2 2.226-1.1 0.204-3.26 0.574-4.8 0.822s-3.021 0.626-3.292 0.84c-0.985 0.782-1.693 103.91-0.712 103.91 0.332 0 0.604 0.138 0.604 0.306 0 0.321 2.92 1.694 3.603 1.694 0.218 0 0.397 0.166 0.397 0.368 0 0.203 0.54 0.487 1.2 0.632s1.2 0.421 1.2 0.614c0 0.192 0.63 0.468 1.4 0.612 0.77 0.145 1.4 0.423 1.4 0.619 0 0.195 0.27 0.355 0.6 0.355s0.6 0.166 0.6 0.368c0 0.203 0.54 0.487 1.2 0.632s1.2 0.415 1.2 0.6 0.54 0.455 1.2 0.6 1.2 0.429 1.2 0.632c0 0.202 0.36 0.368 0.8 0.368s0.8 0.166 0.8 0.368c0 0.203 0.54 0.487 1.2 0.632s1.2 0.415 1.2 0.6 0.54 0.455 1.2 0.6 1.2 0.387 1.2 0.537c0 0.298 2.957 1.663 3.603 1.663 0.218 0 0.397 0.166 0.397 0.368 0 0.203 0.54 0.487 1.2 0.632s1.2 0.415 1.2 0.6 0.54 0.455 1.2 0.6 1.2 0.429 1.2 0.632c0 0.202 0.36 0.368 0.8 0.368s0.8 0.166 0.8 0.368c0 0.203 0.54 0.487 1.2 0.632s1.2 0.415 1.2 0.6 0.54 0.455 1.2 0.6 1.2 0.429 1.2 0.632c0 0.202 0.255 0.368 0.568 0.368 0.596 0 3.086 1.209 3.436 1.668 0.112 0.148 0.697 0.392 1.3 0.544 0.603 0.151 1.096 0.427 1.096 0.613s0.63 0.457 1.4 0.601c0.77 0.145 1.4 0.423 1.4 0.619 0 0.195 0.27 0.355 0.6 0.355s0.6 0.166 0.6 0.368c0 0.203 0.54 0.487 1.2 0.632s1.2 0.429 1.2 0.632c0 0.202 0.179 0.368 0.397 0.368 0.646 0 3.603 1.365 3.603 1.663 0 0.15 0.54 0.392 1.2 0.537s1.2 0.415 1.2 0.6 0.54 0.455 1.2 0.6 1.2 0.429 1.2 0.632c0 0.202 0.179 0.368 0.397 0.368 0.646 0 3.603 1.365 3.603 1.663 0 0.15 0.54 0.392 1.2 0.537s1.2 0.421 1.2 0.614c0 0.192 0.63 0.468 1.4 0.612 0.77 0.145 1.4 0.423 1.4 0.619 0 0.195 0.27 0.355 0.6 0.355s0.6 0.152 0.6 0.337c0 0.326 2.63 1.263 3.546 1.263 0.337 0 0.454-15.731 0.454-60.748v-60.748l1.7-0.455c0.935-0.25 3.23-0.828 5.1-1.284 1.87-0.457 4.48-1.095 5.8-1.419 1.32-0.323 3.12-0.745 4-0.937s3.04-0.736 4.8-1.209 3.92-1.017 4.8-1.209c1.902-0.415 5.413-1.276 9-2.207 1.43-0.371 3.23-0.825 4-1.008s2.57-0.622 4-0.975c1.43-0.354 3.32-0.8 4.2-0.992s3.04-0.736 4.8-1.209 3.92-1.013 4.8-1.2c0.88-0.188 2.77-0.645 4.2-1.016s3.23-0.825 4-1.008 2.57-0.62 4-0.971 2.87-0.676 3.2-0.722c0.523-0.072 0.613 2.007 0.705 16.302 0.067 10.549 0.251 16.531 0.515 16.795 0.454 0.454 3.739 1.37 6.08 1.695 0.825 0.115 1.5 0.352 1.5 0.528 0 0.175 1.08 0.444 2.4 0.597s2.4 0.42 2.4 0.593c0 0.172 1.17 0.439 2.6 0.592s2.6 0.444 2.6 0.647c0 0.202 0.619 0.368 1.376 0.368s1.479 0.166 1.605 0.369c0.125 0.202 1.396 0.493 2.823 0.646 1.428 0.153 2.596 0.42 2.596 0.592 0 0.173 1.08 0.44 2.401 0.593 1.32 0.153 2.501 0.441 2.623 0.639 0.123 0.199 0.723 0.361 1.333 0.361s1.235 0.125 1.388 0.278 0.498 0.32 0.767 0.372c0.268 0.051 1.388 0.301 2.488 0.556 1.1 0.254 3.215 0.66 4.7 0.902s2.7 0.569 2.7 0.727c0 0.157 1.08 0.412 2.4 0.565s2.4 0.441 2.4 0.639c0 0.199 0.63 0.361 1.4 0.361s1.4 0.162 1.4 0.361c0 0.198 1.08 0.486 2.401 0.639 1.32 0.153 2.489 0.423 2.598 0.599s1.459 0.446 2.999 0.601c1.541 0.155 2.802 0.443 2.802 0.641 0 0.197 0.405 0.362 0.9 0.365s1.62 0.265 2.5 0.582 2.185 0.585 2.9 0.594c0.715 0.01 1.3 0.18 1.3 0.379 0 0.198 1.08 0.486 2.401 0.639 1.32 0.153 2.488 0.42 2.594 0.592 0.107 0.173 1.364 0.439 2.795 0.592s2.704 0.445 2.829 0.647c0.126 0.203 0.758 0.369 1.405 0.369s1.176 0.162 1.176 0.361c0 0.198 1.125 0.49 2.5 0.648s2.592 0.432 2.705 0.608c0.112 0.177 1.327 0.449 2.7 0.604l2.495 0.282v-157.65-157.65h-1c-0.55 0-1 0.155-1 0.344" fill="#8c3424"/>
<path d="m198.2 122.16c-1.002 0.361-8.522 2.288-12 3.074-0.88 0.199-2.23 0.54-3 0.757s-12.38 3.099-25.8 6.404-24.94 6.174-25.6 6.375-1.815 0.491-2.567 0.645c-1.774 0.362-1.054 0.766 2.367 1.33 2.434 0.401 7.473 1.297 11.6 2.063 0.99 0.183 3.33 0.611 5.2 0.951 1.87 0.339 4.84 0.881 6.6 1.204s6.71 1.222 11 1.999 8.7 1.589 9.8 1.803c2.677 0.523 7.291 1.372 16.217 2.985 7.917 1.43 7.836 1.43 14.983 0.08 3.562-0.672 8.275-1.541 13.4-2.471 1.87-0.34 4.21-0.768 5.2-0.951 0.99-0.184 3.33-0.608 5.2-0.943s4.93-0.896 6.8-1.248c7.227-1.357 8.601-1.61 17.2-3.161 1.87-0.337 4.48-0.812 5.8-1.055s3.84-0.701 5.6-1.018 3.83-0.72 4.6-0.897l1.4-0.321-2.6-0.691c-1.43-0.381-3.23-0.863-4-1.072-0.77-0.21-13.46-3.358-28.2-6.996-29.336-7.24-28.646-7.066-31.8-8.029-2.086-0.637-6.537-1.129-7.4-0.817" fill="#f3b3ab"/>
</g>
</svg>
