<svg id="svg" version="1.1" xmlns="http://www.w3.org/2000/svg" xmlns:xlink="http://www.w3.org/1999/xlink" width="400" height="400" viewBox="0, 0, 400,400"><g id="svgg"><path id="path0" d="M100.629 175.429 C 99.825 176.233,99.667 208.832,100.459 210.570 L 100.918 211.577 125.891 211.688 C 150.083 211.797,150.883 211.824,151.432 212.576 C 151.918 213.241,152.000 224.941,152.000 293.627 C 152.000 367.806,152.050 373.944,152.661 374.451 C 153.384 375.051,191.474 375.298,192.900 374.713 C 193.563 374.440,193.600 370.230,193.600 294.231 C 193.600 236.152,193.723 213.768,194.046 213.060 C 194.707 211.608,194.851 211.600,220.841 211.600 L 244.782 211.600 245.395 210.664 C 245.927 209.852,245.995 207.457,245.904 192.775 L 245.800 175.823 244.800 175.318 C 243.117 174.466,101.482 174.575,100.629 175.429 M312.800 175.225 C 304.595 175.762,293.597 177.955,287.692 180.233 C 286.313 180.765,285.009 181.200,284.795 181.200 C 283.840 181.200,275.900 185.432,272.350 187.833 C 257.397 197.949,250.200 212.364,250.200 232.200 C 250.200 241.303,250.156 240.942,252.232 249.000 C 255.592 262.045,265.522 273.653,281.200 282.864 C 284.568 284.842,294.054 289.600,294.631 289.600 C 294.956 289.600,303.430 293.546,308.923 296.255 C 319.923 301.682,326.745 307.313,329.888 313.562 C 334.511 322.755,329.251 334.279,318.907 337.620 C 318.078 337.888,316.946 338.336,316.392 338.616 C 311.757 340.958,291.093 340.912,283.861 338.544 C 282.794 338.195,280.994 337.675,279.861 337.388 C 272.742 335.584,261.901 329.919,255.263 324.534 C 250.233 320.452,250.339 320.021,250.483 343.946 L 250.600 363.292 252.066 364.559 C 253.357 365.674,256.314 366.993,263.400 369.610 C 266.414 370.724,275.217 372.693,280.400 373.413 C 282.930 373.765,286.260 374.236,287.800 374.460 C 293.434 375.282,313.581 375.014,319.400 374.041 C 322.260 373.562,325.713 372.994,327.073 372.779 C 330.536 372.229,337.985 370.235,339.497 369.453 C 340.192 369.094,340.994 368.800,341.280 368.799 C 341.954 368.798,350.743 364.348,352.469 363.133 C 368.127 352.115,374.910 338.352,374.912 317.600 C 374.913 295.755,365.921 279.827,347.200 268.511 C 341.661 265.163,332.366 260.358,325.200 257.139 C 312.749 251.545,303.825 246.235,299.400 241.788 C 290.373 232.714,291.782 220.537,302.600 214.140 C 310.877 209.246,329.146 207.979,341.200 211.464 C 342.410 211.814,344.300 212.338,345.400 212.629 C 350.502 213.981,358.403 217.411,363.959 220.688 C 366.887 222.414,366.800 222.993,366.800 201.768 C 366.800 180.620,367.092 182.233,363.000 180.802 C 358.808 179.337,350.272 177.256,346.573 176.798 C 344.608 176.555,342.215 176.180,341.255 175.966 C 337.017 175.020,321.947 174.628,312.800 175.225 " stroke="none" fill="#f7f9fb" fill-rule="evenodd"></path><path id="path1" d="M0.000 200.000 L 0.000 400.000 200.000 400.000 L 400.000 400.000 400.000 200.000 L 400.000 0.000 200.000 0.000 L 0.000 0.000 0.000 200.000 M244.800 175.318 L 245.800 175.823 245.904 192.775 C 245.995 207.457,245.927 209.852,245.395 210.664 L 244.782 211.600 220.841 211.600 C 194.851 211.600,194.707 211.608,194.046 213.060 C 193.723 213.768,193.600 236.152,193.600 294.231 C 193.600 370.230,193.563 374.440,192.900 374.713 C 191.474 375.298,153.384 375.051,152.661 374.451 C 152.050 373.944,152.000 367.806,152.000 293.627 C 152.000 224.941,151.918 213.241,151.432 212.576 C 150.883 211.824,150.083 211.797,125.891 211.688 L 100.918 211.577 100.459 210.570 C 99.667 208.832,99.825 176.233,100.629 175.429 C 101.482 174.575,243.117 174.466,244.800 175.318 M332.655 175.196 C 336.425 175.405,340.295 175.752,341.255 175.966 C 342.215 176.180,344.608 176.555,346.573 176.798 C 350.272 177.256,358.808 179.337,363.000 180.802 C 367.092 182.233,366.800 180.620,366.800 201.768 C 366.800 222.993,366.887 222.414,363.959 220.688 C 358.403 217.411,350.502 213.981,345.400 212.629 C 344.300 212.338,342.410 211.814,341.200 211.464 C 329.146 207.979,310.877 209.246,302.600 214.140 C 291.782 220.537,290.373 232.714,299.400 241.788 C 303.825 246.235,312.749 251.545,325.200 257.139 C 332.366 260.358,341.661 265.163,347.200 268.511 C 365.921 279.827,374.913 295.755,374.912 317.600 C 374.910 338.352,368.127 352.115,352.469 363.133 C 350.743 364.348,341.954 368.798,341.280 368.799 C 340.994 368.800,340.192 369.094,339.497 369.453 C 337.985 370.235,330.536 372.229,327.073 372.779 C 325.713 372.994,322.260 373.562,319.400 374.041 C 313.581 375.014,293.434 375.282,287.800 374.460 C 286.260 374.236,282.930 373.765,280.400 373.413 C 275.217 372.693,266.414 370.724,263.400 369.610 C 256.314 366.993,253.357 365.674,252.066 364.559 L 250.600 363.292 250.483 343.946 C 250.339 320.021,250.233 320.452,255.263 324.534 C 261.901 329.919,272.742 335.584,279.861 337.388 C 280.994 337.675,282.794 338.195,283.861 338.544 C 291.093 340.912,311.757 340.958,316.392 338.616 C 316.946 338.336,318.078 337.888,318.907 337.620 C 329.251 334.279,334.511 322.755,329.888 313.562 C 326.745 307.313,319.923 301.682,308.923 296.255 C 303.430 293.546,294.956 289.600,294.631 289.600 C 294.054 289.600,284.568 284.842,281.200 282.864 C 265.522 273.653,255.592 262.045,252.232 249.000 C 250.156 240.942,250.200 241.303,250.200 232.200 C 250.200 212.364,257.397 197.949,272.350 187.833 C 275.900 185.432,283.840 181.200,284.795 181.200 C 285.009 181.200,286.313 180.765,287.692 180.233 C 298.630 176.014,314.786 174.204,332.655 175.196 " stroke="none" fill="#0474c4" fill-rule="evenodd"></path></g></svg>