<?xml version="1.0" encoding="UTF-8"?>
<svg width="400" height="347.27" version="1.1" viewBox="0, 0, 400,347.2668810289389" xmlns="http://www.w3.org/2000/svg">
<g fill-rule="evenodd">
<path d="m80.626 0.572c0 0.314 0.999 2.308 2.221 4.431 1.222 2.122 7.399 12.824 13.727 23.782s11.506 19.986 11.506 20.063 0.522 0.963 1.16 1.971c0.638 1.007 1.756 2.926 2.484 4.264 0.729 1.338 10.395 18.149 21.481 37.358 26.618 46.124 24.467 42.381 26.762 46.569 0.577 1.051 1.57 2.735 2.209 3.742 0.638 1.007 1.16 1.894 1.16 1.97 0 0.2 34.643 60.235 35.682 61.836 0.737 1.135 0.947 1.271 1.342 0.869 0.431-0.437 31.091-53.368 31.091-53.674 0-0.073 0.522-0.958 1.16-1.965 1.087-1.715 1.707-2.805 4.449-7.826 0.6-1.099 1.304-2.245 1.564-2.547s0.472-0.648 0.472-0.77 9.907-17.39 22.014-38.374c12.108-20.984 22.533-39.091 23.168-40.238s8.708-15.174 17.94-31.171 16.886-29.485 17.009-29.974l0.223-0.888h-37.753-37.753l-0.208 1.043c-0.115 0.573-0.362 1.042-0.55 1.042s-0.248-0.243-0.134-0.539c0.118-0.309 0.06-0.449-0.137-0.327-0.189 0.117-0.343 0.888-0.343 1.715 0 1.21-0.135 1.538-0.695 1.685-0.424 0.11-0.695 0.474-0.695 0.929 0 0.412-0.157 0.652-0.348 0.534s-0.347-0.04-0.347 0.173c0 0.214-0.181 0.277-0.402 0.141-0.242-0.15-0.307-0.096-0.163 0.137 0.362 0.585-0.141 2.155-0.689 2.155-0.321 0-0.484 0.409-0.484 1.216 0 0.985-0.132 1.217-0.695 1.217-0.49 0-0.695 0.231-0.695 0.785 0 0.432-0.319 0.984-0.709 1.228-0.389 0.243-0.614 0.595-0.499 0.781 0.241 0.389-0.153 1.868-0.425 1.597-0.38-0.38-1.017 0.651-0.872 1.411 0.121 0.632-2e-3 0.801-0.582 0.801-0.572 0-0.736 0.214-0.736 0.959 0 0.582-0.273 1.129-0.695 1.393-0.382 0.238-0.695 0.75-0.695 1.137s-0.277 0.816-0.615 0.953c-0.339 0.137-0.632 0.523-0.652 0.857-0.071 1.183-0.128 1.28-0.644 1.082-0.412-0.158-0.522 0.103-0.522 1.239 0 1.303-0.062 1.406-0.655 1.089-0.476-0.255-0.651-0.234-0.64 0.075 0.053 1.54-0.134 1.989-0.827 1.989-0.525 0-0.673 0.156-0.521 0.549 0.116 0.303-0.024 0.885-0.311 1.294-0.319 0.456-0.521 0.557-0.521 0.262 0-0.266-0.1-0.383-0.223-0.26s-0.026 0.462 0.216 0.753c0.301 0.362 0.316 0.53 0.05 0.53-0.215 0-0.393 0.195-0.396 0.434-4e-3 0.239-0.374 0.782-0.822 1.208-0.52 0.492-0.782 1.091-0.721 1.646 0.082 0.74 2e-3 0.823-0.521 0.543-0.481-0.257-0.618-0.199-0.617 0.265 5e-3 2.271-0.088 2.597-0.615 2.159-0.514-0.426-0.719-0.122-0.55 0.819 0.115 0.643-0.76 1.327-1.086 0.848-0.222-0.326-0.291-0.258-0.251 0.244 0.127 1.593-0.053 2.186-0.719 2.36-0.506 0.132-0.695 0.474-0.695 1.257 0 0.795-0.16 1.075-0.612 1.075-0.447 0-0.624 0.299-0.657 1.106-0.025 0.609-0.297 1.291-0.605 1.516-0.307 0.225-0.559 0.587-0.559 0.805 0 0.346-0.422 0.526-1.072 0.456-0.215-0.023-0.329 0.654-0.327 1.938 0 0.434-0.213 0.782-0.479 0.782-0.558 0-1.042 0.947-0.934 1.825 0.044 0.351-0.153 0.608-0.468 0.608-0.375 0-0.551 0.348-0.57 1.129-0.015 0.621-0.107 0.934-0.203 0.695-0.186-0.461-0.855-0.616-0.751-0.174 0.214 0.911-0.828 3.25-1.214 2.725-0.35-0.478-0.423-0.394-0.49 0.565-0.044 0.62-0.369 1.365-0.724 1.655-0.402 0.331-0.608 0.887-0.549 1.485 0.073 0.746-0.054 0.955-0.58 0.955-0.589 0-0.854 0.534-0.723 1.456 0.019 0.132-0.256 0.183-0.611 0.115-0.354-0.068-0.639 0.059-0.633 0.282 0.049 1.739-0.139 2.318-0.754 2.318-0.361 0-0.649 0.195-0.641 0.434 0.051 1.35-0.149 1.998-0.614 1.998-0.325 0-0.521 0.328-0.521 0.869 0 0.478-0.157 0.869-0.348 0.869s-0.348-0.166-0.348-0.368c0-0.203-0.173-0.261-0.384-0.13-0.269 0.166-0.243 0.337 0.087 0.568 0.366 0.257 0.375 0.37 0.037 0.507-0.239 0.097-0.435 0.456-0.435 0.799 0 0.846-0.9 1.602-1.172 0.984-0.141-0.319-0.188-0.298-0.166 0.073 0.085 1.428-0.096 2.085-0.573 2.085-0.287 0-0.521 0.243-0.521 0.541s-0.159 0.444-0.353 0.324c-0.195-0.12-0.264-0.364-0.154-0.542s-0.044-0.323-0.342-0.323c-0.499 0-0.679-0.633-0.593-2.085 0.022-0.371-0.025-0.392-0.166-0.073-0.272 0.618-1.172-0.138-1.172-0.984 0-0.343-0.196-0.702-0.435-0.799-0.338-0.137-0.329-0.25 0.037-0.507 0.33-0.231 0.356-0.402 0.087-0.568-0.211-0.131-0.384-0.073-0.384 0.13 0 0.202-0.157 0.368-0.348 0.368s-0.348-0.373-0.348-0.828c0-0.537-0.245-0.893-0.696-1.011-0.442-0.115-0.624-0.371-0.498-0.7 0.11-0.285 0.016-0.632-0.209-0.771-0.304-0.188-0.288-0.338 0.063-0.586 0.342-0.243 0.257-0.288-0.31-0.163-0.791 0.173-0.904-0.108-0.907-2.251 0-0.368-0.227-0.533-0.626-0.456-0.344 0.066-0.61 0.013-0.591-0.119 0.133-0.937-0.133-1.456-0.748-1.456-0.585 0-0.67-0.169-0.519-1.029 0.139-0.789 0.019-1.115-0.516-1.402-0.384-0.205-0.698-0.675-0.698-1.044s-0.313-0.838-0.695-1.043c-0.43-0.23-0.697-0.731-0.7-1.315-3e-3 -0.519-0.157-1.178-0.343-1.465-0.244-0.378-0.338-0.397-0.342-0.066-3e-3 0.25-0.161 0.358-0.353 0.24-0.191-0.118-0.347-0.596-0.347-1.063 0-0.492-0.203-0.848-0.482-0.848-0.418 0-0.789-1.047-0.972-2.741-0.029-0.265-0.339-0.557-0.689-0.649-0.437-0.114-0.593-0.408-0.497-0.937 0.09-0.492-0.034-0.77-0.342-0.77-0.389 0-0.399 0.106-0.053 0.55 0.378 0.486 0.358 0.495-0.18 0.073-0.334-0.262-0.608-0.824-0.608-1.249s-0.301-1.045-0.669-1.378-0.612-0.905-0.541-1.27c0.09-0.471-0.07-0.665-0.547-0.665-0.515 0-0.676-0.242-0.676-1.019 0-0.714-0.208-1.085-0.695-1.24-0.665-0.211-0.882-0.922-0.74-2.426 0.065-0.686 0.064-0.686-0.492 0-0.306 0.379-0.458 0.493-0.337 0.254s0.043-0.434-0.173-0.434c-0.217 0-0.339-0.274-0.273-0.608 0.067-0.335-0.173-0.851-0.533-1.146-0.36-0.296-0.674-1.015-0.698-1.599-0.029-0.715-0.216-1.049-0.571-1.026-0.299 0.02-0.506-0.228-0.478-0.573 0.026-0.335-0.091-0.609-0.261-0.609s-0.309-0.243-0.309-0.541-0.158-0.444-0.352-0.325c-0.195 0.121-0.446-0.256-0.564-0.848-0.129-0.645-0.428-1.066-0.758-1.066-0.438 0-0.413-0.106 0.131-0.547 0.371-0.301 0.461-0.437 0.201-0.303-0.61 0.315-1.13-0.511-0.886-1.409 0.117-0.433 0.078-0.538-0.104-0.279-0.481 0.684-1.126-0.018-1.225-1.333-0.073-0.978-0.217-1.198-0.7-1.072-0.482 0.126-0.608-0.063-0.608-0.912 0-0.73-0.231-1.194-0.725-1.459-0.399-0.213-0.635-0.478-0.524-0.588 0.11-0.11 6e-3 -0.441-0.231-0.734-0.357-0.44-0.341-0.487 0.09-0.267 0.286 0.147 0.226 0.026-0.135-0.267-0.361-0.294-0.843-0.892-1.071-1.329-0.228-0.438-0.598-0.756-0.821-0.708-0.247 0.052-0.406-0.375-0.406-1.089 0-0.908-0.169-1.22-0.741-1.37-0.524-0.137-0.69-0.389-0.567-0.861 0.113-0.429-0.106-0.878-0.611-1.257-0.495-0.372-0.723-0.831-0.615-1.24 0.107-0.413-0.097-0.818-0.56-1.106-0.401-0.251-0.729-0.746-0.729-1.1s-0.313-0.726-0.695-0.826c-0.522-0.136-0.695-0.474-0.695-1.357 0-0.708-0.173-1.177-0.434-1.179-0.672-4e-3 -1.303-1.595-0.825-2.078 0.29-0.291 0.234-0.333-0.215-0.162-0.414 0.157-0.671 0.026-0.813-0.414-0.47-1.454-0.97-2.214-1.206-1.832-0.132 0.214-0.346-0.292-0.476-1.123-0.129-0.832-0.526-1.864-0.882-2.294l-0.647-0.782h-37.564c-34.633 0-37.563 0.045-37.563 0.572" fill="#34445c"/>
<path d="m0 2.259c0 1.274 0.151 2.259 0.348 2.259 0.191 0 0.347 0.233 0.347 0.518s0.313 0.714 0.695 0.953c0.422 0.263 0.695 0.81 0.695 1.393 0 0.62 0.184 0.959 0.521 0.959 0.287 0 0.522 0.3 0.522 0.666 0 1.036 0.374 1.766 0.906 1.766 0.266 0 0.484 0.3 0.484 0.667 0 1.036 0.374 1.766 0.906 1.766 0.266 0 0.484 0.294 0.484 0.652 0 0.359 0.216 0.832 0.479 1.051 0.264 0.219 0.573 0.863 0.687 1.432 0.121 0.606 0.427 1.035 0.737 1.035 0.36 0 0.53 0.344 0.53 1.075 0 0.783 0.189 1.125 0.695 1.257 0.45 0.118 0.695 0.474 0.695 1.014 0 0.457 0.312 1.099 0.695 1.426 0.382 0.328 0.695 0.776 0.695 0.997s0.234 0.596 0.521 0.834 0.521 0.819 0.521 1.292c0 0.566 0.237 0.92 0.695 1.04 0.499 0.131 0.695 0.474 0.695 1.216 0 0.743 0.197 1.086 0.695 1.217 0.489 0.128 0.696 0.474 0.696 1.166 0 0.542 0.207 1.11 0.46 1.263s0.561 0.552 0.684 0.886c0.123 0.335 0.463 0.608 0.756 0.608 0.379 0 0.532 0.359 0.532 1.249 0 0.957 0.163 1.292 0.695 1.431 0.495 0.129 0.695 0.474 0.695 1.194 0 0.561 0.224 1.099 0.5 1.205 0.275 0.106 0.603 0.659 0.728 1.229 0.125 0.571 0.448 1.122 0.716 1.225 0.269 0.103 0.489 0.483 0.489 0.845 0 0.426 0.245 0.658 0.695 0.658 0.558 0 0.695 0.232 0.695 1.176 0 0.883 0.173 1.221 0.695 1.357 0.508 0.133 0.695 0.474 0.695 1.268 0 0.645 0.212 1.167 0.521 1.286 0.287 0.11 0.522 0.394 0.522 0.63 0 0.237 0.312 0.714 0.695 1.06 0.382 0.346 0.695 0.995 0.695 1.444 0 0.583 0.197 0.814 0.695 0.814 0.563 0 0.695 0.232 0.695 1.217 0 0.806 0.163 1.216 0.483 1.216 0.276 0 0.58 0.52 0.71 1.216 0.126 0.669 0.382 1.217 0.569 1.217s0.489 0.391 0.671 0.869c0.181 0.477 0.568 0.868 0.86 0.868 0.374 0 0.53 0.358 0.53 1.217 0 0.806 0.162 1.216 0.482 1.216 0.277 0 0.58 0.52 0.711 1.216 0.137 0.729 0.431 1.217 0.734 1.217 0.278 0 0.505 0.313 0.505 0.695s0.313 1.008 0.695 1.39c0.383 0.382 0.695 0.905 0.695 1.162s0.313 0.751 0.695 1.097c0.383 0.346 0.696 0.996 0.696 1.444 0 0.492 0.206 0.815 0.521 0.815 0.287 0 0.521 0.3 0.521 0.666 0 1.036 0.375 1.766 0.906 1.766 0.266 0 0.484 0.313 0.484 0.695 0 0.383 0.313 1.008 0.695 1.391 0.383 0.382 0.695 0.934 0.695 1.227 0 0.292 0.235 0.622 0.522 0.732 0.286 0.11 0.521 0.483 0.521 0.829 0 1.001 0.381 1.729 0.906 1.729 0.266 0 0.484 0.3 0.484 0.667 0 1.036 0.375 1.766 0.906 1.766 0.276 0 0.484 0.35 0.484 0.816 0 0.448 0.313 1.176 0.695 1.617 0.382 0.44 0.695 0.934 0.695 1.095 0 0.162 0.235 0.295 0.521 0.295 0.367 0 0.522 0.37 0.522 1.249 0 0.956 0.162 1.291 0.695 1.43 0.498 0.131 0.695 0.474 0.695 1.217 0 0.742 0.196 1.086 0.695 1.216 0.382 0.1 0.695 0.409 0.695 0.687s0.234 0.74 0.521 1.027 0.521 0.838 0.521 1.224c0 0.411 0.29 0.779 0.696 0.885 0.518 0.135 0.695 0.474 0.695 1.334 0 0.847 0.184 1.211 0.695 1.373 0.438 0.139 0.695 0.526 0.695 1.045 0 0.454 0.166 0.928 0.369 1.053 0.203 0.126 0.511 0.604 0.686 1.063 0.175 0.46 0.556 0.835 0.847 0.835 0.361 0 0.53 0.344 0.53 1.075 0 0.783 0.189 1.125 0.695 1.257 0.523 0.137 0.695 0.474 0.695 1.358 0 0.647 0.159 1.176 0.354 1.176 0.194 0 0.614 0.547 0.933 1.216s0.707 1.216 0.863 1.216 0.283 0.289 0.283 0.642c0 0.352 0.313 0.924 0.695 1.27s0.695 0.995 0.695 1.444c0 0.583 0.198 0.815 0.695 0.815 0.563 0 0.695 0.231 0.695 1.216 0 0.849 0.158 1.216 0.522 1.216 0.286 0 0.521 0.275 0.521 0.612 0 0.336 0.313 0.807 0.695 1.045 0.404 0.253 0.695 0.811 0.695 1.333 0 0.606 0.226 0.957 0.695 1.08 0.522 0.136 0.695 0.474 0.695 1.357 0 0.814 0.161 1.176 0.521 1.176 0.29 0 0.522 0.309 0.522 0.695 0 0.383 0.312 1.008 0.695 1.39 0.382 0.383 0.695 0.93 0.695 1.217 0 0.286 0.313 0.834 0.695 1.216s0.695 0.935 0.695 1.227c0 0.293 0.23 0.621 0.512 0.729 0.281 0.108 0.611 0.729 0.733 1.379 0.126 0.671 0.431 1.183 0.705 1.183 0.265 0 0.482 0.313 0.482 0.695s0.313 1.008 0.696 1.39c0.382 0.382 0.695 0.93 0.695 1.216 0 0.287 0.312 0.834 0.695 1.217 0.382 0.382 0.695 0.934 0.695 1.227s0.234 0.622 0.521 0.732 0.521 0.496 0.521 0.858 0.313 0.971 0.695 1.353c0.383 0.382 0.695 0.917 0.695 1.188 0 0.873 0.409 1.592 0.906 1.592 0.267 0 0.484 0.313 0.484 0.695 0 0.386 0.232 0.695 0.522 0.695 0.325 0 0.521 0.329 0.521 0.872 0 0.48 0.313 1.14 0.695 1.468 0.382 0.327 0.695 0.86 0.695 1.184 0 0.964 0.389 1.689 0.906 1.689 0.285 0 0.484 0.358 0.484 0.872 0 0.48 0.313 1.14 0.695 1.468 0.383 0.327 0.695 0.795 0.695 1.039s0.235 0.444 0.522 0.444c0.351 0 0.521 0.351 0.521 1.075 0 0.783 0.189 1.125 0.695 1.257 0.519 0.136 0.695 0.474 0.695 1.334 0 0.847 0.184 1.211 0.695 1.373 0.382 0.121 0.695 0.506 0.695 0.855s0.235 0.725 0.521 0.835c0.287 0.11 0.522 0.571 0.522 1.025 0 0.455 0.312 1.109 0.695 1.455 0.382 0.346 0.695 0.996 0.695 1.444 0 0.583 0.197 0.815 0.695 0.815 0.542 0 0.695 0.232 0.695 1.054 0 0.615 0.216 1.136 0.521 1.253 0.287 0.11 0.521 0.42 0.521 0.688s0.313 0.755 0.695 1.082c0.383 0.328 0.695 0.966 0.695 1.42 0 0.531 0.247 0.888 0.696 1.005 0.522 0.137 0.695 0.474 0.695 1.358 0 0.822 0.159 1.176 0.53 1.176 0.314 0 0.617 0.437 0.744 1.072 0.118 0.59 0.427 1.154 0.686 1.254 0.26 0.099 0.472 0.477 0.472 0.839s0.313 0.97 0.695 1.353c0.383 0.382 0.695 0.944 0.695 1.248 0 0.305 0.313 0.636 0.695 0.736 0.495 0.129 0.695 0.474 0.695 1.195 0 0.58 0.223 1.098 0.522 1.213 0.286 0.11 0.521 0.496 0.521 0.858 0 0.361 0.313 0.97 0.695 1.353 0.382 0.382 0.695 0.929 0.695 1.216 0 0.29 0.309 0.521 0.695 0.521 0.564 0 0.695 0.232 0.695 1.227 0 0.748 0.196 1.303 0.5 1.42 0.275 0.105 0.603 0.658 0.728 1.228 0.125 0.571 0.432 1.116 0.682 1.212s0.555 0.711 0.678 1.366c0.133 0.71 0.429 1.193 0.729 1.193 0.278 0 0.506 0.312 0.506 0.695 0 0.382 0.227 0.695 0.506 0.695 0.304 0 0.598 0.494 0.738 1.244 0.129 0.684 0.449 1.326 0.711 1.427 0.263 0.101 0.478 0.467 0.478 0.813 0 1.001 0.381 1.729 0.906 1.729 0.266 0 0.484 0.275 0.484 0.611s0.313 0.807 0.695 1.046c0.393 0.245 0.695 0.81 0.695 1.3 0 0.538 0.197 0.865 0.521 0.865 0.325 0 0.521 0.329 0.521 0.873 0 0.479 0.313 1.14 0.695 1.467 0.383 0.327 0.696 0.95 0.696 1.384 0 0.433 0.312 0.984 0.695 1.222 0.382 0.239 0.695 0.693 0.695 1.009s0.212 0.656 0.471 0.755c0.26 0.1 0.569 0.664 0.687 1.254 0.127 0.635 0.43 1.072 0.744 1.072 0.361 0 0.53 0.343 0.53 1.075 0 0.783 0.189 1.125 0.695 1.257 0.451 0.118 0.695 0.474 0.695 1.013 0 0.458 0.313 1.1 0.695 1.427 0.383 0.328 0.695 0.857 0.695 1.176s0.235 0.671 0.522 0.781c0.286 0.11 0.521 0.61 0.521 1.112 0 0.62 0.223 0.97 0.695 1.094 0.499 0.13 0.695 0.474 0.695 1.216 0 0.743 0.196 1.086 0.695 1.217 0.382 0.1 0.695 0.446 0.695 0.769 0 0.324 0.23 0.892 0.51 1.263 0.281 0.371 0.516 0.938 0.522 1.26 6e-3 0.321 0.324 0.684 0.706 0.805 0.493 0.156 0.695 0.526 0.695 1.272 0 0.76 0.193 1.102 0.695 1.234 0.494 0.129 0.695 0.474 0.695 1.194 0 0.561 0.223 1.099 0.5 1.205 0.275 0.106 0.603 0.659 0.728 1.229s0.447 1.121 0.716 1.225c0.269 0.103 0.489 0.472 0.489 0.821s0.312 0.734 0.695 0.855c0.493 0.157 0.695 0.526 0.695 1.273 0 0.759 0.193 1.102 0.695 1.233 0.494 0.13 0.695 0.474 0.695 1.195 0 0.58 0.223 1.098 0.521 1.213 0.287 0.11 0.521 0.458 0.521 0.774s0.313 0.77 0.695 1.009c0.393 0.245 0.696 0.81 0.696 1.299 0 0.635 0.185 0.866 0.695 0.866 0.563 0 0.695 0.232 0.695 1.228 0 0.77 0.194 1.301 0.521 1.427 0.287 0.11 0.521 0.496 0.521 0.858s0.313 0.97 0.695 1.353c0.383 0.382 0.695 0.929 0.695 1.216 0 0.29 0.309 0.521 0.695 0.521 0.563 0 0.695 0.232 0.695 1.217 0 0.806 0.163 1.216 0.483 1.216 0.278 0 0.581 0.524 0.714 1.235 0.128 0.679 0.458 1.321 0.734 1.427s0.502 0.489 0.502 0.85c0 0.362 0.313 0.971 0.695 1.353 0.382 0.383 0.695 0.852 0.695 1.043s0.313 0.66 0.695 1.042c0.382 0.383 0.695 1.008 0.695 1.391 0 0.386 0.232 0.695 0.522 0.695 0.322 0 0.521 0.326 0.521 0.855 0 0.47 0.281 1.135 0.624 1.477s0.809 1.052 1.035 1.577c0.226 0.526 0.571 0.956 0.766 0.956s0.355 0.374 0.355 0.832c0 0.457 0.212 0.913 0.472 1.012 0.259 0.1 0.568 0.664 0.686 1.254 0.127 0.635 0.431 1.072 0.745 1.072 0.291 0 0.53 0.3 0.53 0.667 0 1.036 0.374 1.766 0.906 1.766 0.266 0 0.481 0.195 0.478 0.434-0.011 0.789 1.561 3.709 2.004 3.723 0.251 7e-3 0.434 0.467 0.434 1.088 0 0.783 0.189 1.125 0.695 1.257 0.449 0.118 0.696 0.474 0.696 1.007 0 0.454 0.312 1.021 0.695 1.26 0.382 0.238 0.695 0.69 0.695 1.003 0 0.312 0.234 0.763 0.521 1.001s0.521 0.819 0.521 1.292c0 0.566 0.237 0.92 0.695 1.04 0.499 0.13 0.695 0.474 0.695 1.216 0 0.743 0.197 1.086 0.695 1.217 0.495 0.129 0.695 0.474 0.695 1.194 0 0.58 0.223 1.099 0.522 1.213 0.286 0.11 0.521 0.433 0.521 0.717s0.313 0.599 0.695 0.699c0.519 0.135 0.695 0.474 0.695 1.334 0 0.847 0.184 1.21 0.695 1.373 0.489 0.155 0.695 0.525 0.695 1.25 0 0.576 0.221 1.115 0.5 1.222 0.275 0.106 0.603 0.659 0.728 1.229 0.125 0.571 0.448 1.122 0.716 1.225 0.269 0.103 0.489 0.483 0.489 0.845 0 0.426 0.245 0.658 0.695 0.658 0.558 0 0.695 0.232 0.695 1.176 0 0.883 0.173 1.221 0.695 1.357 0.508 0.133 0.695 0.474 0.695 1.268 0 0.645 0.212 1.167 0.521 1.286 0.287 0.11 0.522 0.412 0.522 0.672 0 0.259 0.312 0.639 0.695 0.844 0.434 0.232 0.695 0.727 0.695 1.319 0 0.57 0.276 1.119 0.695 1.38 0.393 0.246 0.695 0.811 0.695 1.3 0 0.507 0.2 0.866 0.482 0.866 0.277 0 0.58 0.52 0.711 1.216 0.126 0.669 0.382 1.217 0.569 1.217s0.49 0.395 0.674 0.878c0.183 0.482 0.57 0.968 0.86 1.079 0.302 0.116 0.527 0.63 0.527 1.208 0 0.648 0.179 1.005 0.505 1.005 0.303 0 0.597 0.488 0.734 1.216 0.125 0.669 0.428 1.217 0.672 1.217s0.547 0.547 0.672 1.216c0.137 0.728 0.431 1.216 0.734 1.216 0.278 0 0.505 0.289 0.505 0.642 0 0.352 0.313 0.924 0.695 1.27 0.383 0.346 0.695 0.996 0.695 1.444 0 0.463 0.208 0.815 0.483 0.815 0.276 0 0.58 0.519 0.711 1.216 0.136 0.728 0.431 1.216 0.734 1.216 0.278 0 0.505 0.3 0.505 0.667 0 1.036 0.375 1.766 0.906 1.766 0.266 0 0.484 0.313 0.484 0.695 0 0.386 0.232 0.695 0.521 0.695 0.32 0 0.522 0.325 0.522 0.841 0 1.199 0.345 1.939 0.906 1.939 0.266 0 0.484 0.3 0.484 0.667 0 1.036 0.374 1.766 0.906 1.766 0.307 0 0.484 0.385 0.484 1.053 0 0.604 0.217 1.137 0.508 1.249 0.279 0.107 0.603 0.493 0.718 0.858 0.116 0.364 0.435 0.663 0.709 0.663 0.321 0 0.498 0.369 0.498 1.042v1.043h2.606 2.606v-1.043c0-0.594 0.187-1.049 0.435-1.057 0.564-0.019 1.998-2.27 1.998-3.137 0-0.369 0.218-0.671 0.484-0.671 0.532 0 0.906-0.73 0.906-1.766 0-0.367 0.218-0.667 0.484-0.667 0.561 0 0.906-0.74 0.906-1.939 0-0.516 0.202-0.841 0.522-0.841 0.289 0 0.521-0.309 0.521-0.695 0-0.382 0.218-0.695 0.484-0.695 0.531 0 0.906-0.73 0.906-1.766 0-0.367 0.227-0.667 0.505-0.667 0.303 0 0.598-0.488 0.734-1.216 0.131-0.697 0.435-1.216 0.711-1.216 0.275 0 0.483-0.352 0.483-0.815 0-0.448 0.312-1.098 0.695-1.444 0.382-0.346 0.695-0.918 0.695-1.27 0-0.353 0.227-0.642 0.505-0.642 0.303 0 0.597-0.488 0.734-1.216 0.125-0.669 0.428-1.216 0.672-1.216s0.547-0.548 0.672-1.217c0.137-0.728 0.431-1.216 0.734-1.216 0.326 0 0.505-0.357 0.505-1.005 0-0.578 0.225-1.092 0.527-1.208 0.29-0.111 0.677-0.597 0.86-1.079 0.184-0.483 0.487-0.878 0.674-0.878s0.443-0.548 0.569-1.217c0.131-0.696 0.434-1.216 0.711-1.216 0.282 0 0.482-0.359 0.482-0.866 0-0.489 0.302-1.054 0.695-1.3 0.419-0.261 0.695-0.81 0.695-1.38 0-0.592 0.261-1.087 0.695-1.319 0.383-0.205 0.695-0.585 0.695-0.844 0-0.26 0.235-0.562 0.522-0.672 0.309-0.119 0.521-0.641 0.521-1.286 0-0.794 0.187-1.135 0.695-1.268 0.522-0.136 0.695-0.474 0.695-1.357 0-0.944 0.137-1.176 0.695-1.176 0.404 0 0.695-0.232 0.695-0.554 0-0.304 0.313-0.95 0.695-1.436 0.383-0.486 0.695-1.081 0.695-1.321 0-0.241 0.235-0.528 0.522-0.638 0.301-0.115 0.521-0.635 0.521-1.23 0-0.725 0.206-1.095 0.695-1.25 0.517-0.165 0.695-0.526 0.695-1.414 0-0.839 0.158-1.193 0.532-1.193 0.293 0 0.633-0.273 0.756-0.608 0.123-0.334 0.431-0.733 0.684-0.886s0.461-0.721 0.461-1.263c0-0.692 0.206-1.038 0.695-1.166 0.498-0.131 0.695-0.474 0.695-1.217 0-0.742 0.196-1.086 0.695-1.216 0.458-0.12 0.695-0.474 0.695-1.04 0-0.473 0.234-1.054 0.521-1.292s0.521-0.689 0.521-1.001c0-0.313 0.313-0.765 0.695-1.003 0.383-0.239 0.695-0.806 0.695-1.26 0-0.533 0.247-0.889 0.696-1.007 0.506-0.132 0.695-0.474 0.695-1.257 0-0.621 0.183-1.081 0.434-1.088 0.443-0.014 2.015-2.934 2.004-3.723-3e-3 -0.239 0.212-0.434 0.478-0.434 0.532 0 0.906-0.73 0.906-1.766 0-0.367 0.239-0.667 0.53-0.667 0.314 0 0.618-0.437 0.745-1.072 0.118-0.59 0.427-1.154 0.686-1.254 0.26-0.099 0.472-0.555 0.472-1.012 0-0.458 0.16-0.832 0.355-0.832s0.54-0.43 0.766-0.956c0.226-0.525 0.692-1.235 1.035-1.577s0.624-1.007 0.624-1.477c0-0.529 0.199-0.855 0.521-0.855 0.29 0 0.522-0.309 0.522-0.695 0-0.383 0.313-1.008 0.695-1.391 0.382-0.382 0.695-0.934 0.695-1.227s0.225-0.618 0.5-0.724c0.275-0.105 0.597-0.635 0.716-1.176 0.119-0.542 0.433-1.068 0.697-1.169 0.265-0.102 0.585-0.74 0.713-1.419 0.133-0.711 0.436-1.235 0.714-1.235 0.32 0 0.483-0.41 0.483-1.216 0-0.985 0.132-1.217 0.695-1.217 0.45 0 0.695-0.231 0.695-0.658 0-0.361 0.22-0.742 0.488-0.845 0.269-0.103 0.591-0.654 0.717-1.224 0.125-0.571 0.452-1.124 0.727-1.229 0.305-0.117 0.5-0.672 0.5-1.419 0-0.996 0.132-1.228 0.695-1.228 0.51 0 0.695-0.231 0.695-0.866 0-0.489 0.303-1.054 0.696-1.299 0.382-0.239 0.695-0.693 0.695-1.009s0.234-0.664 0.521-0.774c0.298-0.115 0.521-0.633 0.521-1.213 0-0.721 0.201-1.065 0.695-1.195 0.502-0.131 0.695-0.474 0.695-1.233 0-0.747 0.202-1.116 0.695-1.273 0.383-0.121 0.695-0.506 0.695-0.855s0.22-0.718 0.489-0.821c0.269-0.104 0.591-0.655 0.716-1.225s0.453-1.123 0.728-1.229c0.277-0.106 0.5-0.644 0.5-1.205 0-0.72 0.201-1.065 0.695-1.194 0.502-0.132 0.695-0.474 0.695-1.234 0-0.746 0.202-1.116 0.695-1.272 0.382-0.121 0.7-0.484 0.706-0.805 6e-3 -0.322 0.241-0.889 0.522-1.26 0.28-0.371 0.51-0.939 0.51-1.263 0-0.323 0.313-0.669 0.695-0.769 0.499-0.131 0.695-0.474 0.695-1.217 0-0.742 0.196-1.086 0.695-1.216 0.472-0.124 0.695-0.474 0.695-1.094 0-0.502 0.235-1.002 0.521-1.112 0.287-0.11 0.522-0.462 0.522-0.781s0.312-0.848 0.695-1.176c0.382-0.327 0.695-0.969 0.695-1.427 0-0.539 0.244-0.895 0.695-1.013 0.506-0.132 0.695-0.474 0.695-1.257 0-0.697 0.173-1.075 0.493-1.075 0.272 0 0.599-0.48 0.728-1.066s0.454-1.15 0.723-1.254c0.269-0.103 0.488-0.445 0.488-0.761s0.313-0.77 0.695-1.009c0.383-0.238 0.695-0.789 0.695-1.222 0-0.434 0.313-1.057 0.696-1.384 0.382-0.327 0.695-0.988 0.695-1.467 0-0.544 0.196-0.873 0.521-0.873 0.324 0 0.521-0.327 0.521-0.865 0-0.49 0.302-1.055 0.695-1.3 0.382-0.239 0.695-0.631 0.695-0.872s0.313-0.751 0.695-1.133c0.383-0.382 0.695-0.991 0.695-1.353s0.215-0.74 0.478-0.841c0.262-0.101 0.582-0.743 0.711-1.427 0.14-0.75 0.434-1.244 0.738-1.244 0.279 0 0.506-0.235 0.506-0.521 0-0.287 0.313-0.835 0.695-1.217s0.695-0.991 0.695-1.353 0.22-0.742 0.489-0.845c0.268-0.103 0.591-0.654 0.716-1.225 0.125-0.57 0.453-1.123 0.728-1.228 0.304-0.117 0.5-0.672 0.5-1.42 0-0.995 0.131-1.227 0.695-1.227 0.386 0 0.695-0.231 0.695-0.521 0-0.287 0.313-0.834 0.695-1.216 0.382-0.383 0.695-0.992 0.695-1.353 0-0.362 0.235-0.748 0.521-0.858 0.299-0.115 0.522-0.633 0.522-1.213 0-0.721 0.2-1.066 0.695-1.195 0.466-0.122 0.695-0.474 0.695-1.071 0-0.533 0.278-1.038 0.695-1.261 0.382-0.204 0.695-0.66 0.695-1.012s0.219-0.822 0.487-1.045c0.268-0.222 0.584-0.789 0.702-1.259s0.446-0.854 0.729-0.854c0.353 0 0.514-0.369 0.514-1.176 0-0.884 0.173-1.221 0.695-1.358 0.449-0.117 0.696-0.474 0.696-1.005 0-0.454 0.312-1.092 0.695-1.42 0.382-0.327 0.695-0.814 0.695-1.082s0.234-0.578 0.521-0.688c0.305-0.117 0.521-0.638 0.521-1.253 0-0.822 0.153-1.054 0.695-1.054 0.558 0 0.695-0.232 0.695-1.176 0-0.883 0.173-1.221 0.695-1.357 0.473-0.124 0.695-0.474 0.695-1.094 0-0.502 0.235-1.002 0.522-1.112 0.286-0.11 0.521-0.486 0.521-0.835s0.313-0.734 0.695-0.855c0.511-0.162 0.695-0.526 0.695-1.373 0-0.86 0.176-1.198 0.695-1.334 0.506-0.132 0.695-0.474 0.695-1.257 0-0.724 0.17-1.075 0.521-1.075 0.287 0 0.522-0.21 0.522-0.468 0-0.257 0.312-0.75 0.695-1.096 0.382-0.346 0.695-0.958 0.695-1.36 0-0.403 0.313-0.927 0.695-1.166 0.382-0.238 0.695-0.789 0.695-1.222 0-0.434 0.313-1.057 0.695-1.384 0.382-0.328 0.695-0.988 0.695-1.468 0-0.543 0.196-0.872 0.521-0.872 0.287 0 0.522-0.275 0.522-0.611s0.312-0.807 0.695-1.046c0.382-0.238 0.695-0.745 0.695-1.126s0.312-1.005 0.695-1.387c0.382-0.382 0.695-0.991 0.695-1.353s0.234-0.748 0.521-0.858 0.521-0.594 0.521-1.077c0-0.5 0.299-1.063 0.695-1.31 0.383-0.239 0.695-0.632 0.695-0.872 0-0.241 0.313-0.751 0.695-1.133 0.383-0.382 0.696-1.008 0.696-1.39s0.217-0.695 0.482-0.695c0.274 0 0.579-0.512 0.705-1.183 0.122-0.65 0.452-1.271 0.733-1.379 0.282-0.108 0.512-0.436 0.512-0.729 0-0.292 0.313-0.845 0.695-1.227s0.695-0.93 0.695-1.216c0-0.287 0.313-0.834 0.695-1.217 0.383-0.382 0.695-1.007 0.695-1.39 0-0.386 0.232-0.695 0.522-0.695 0.36 0 0.521-0.362 0.521-1.176 0-0.883 0.173-1.221 0.695-1.357 0.469-0.123 0.695-0.474 0.695-1.08 0-0.522 0.291-1.08 0.695-1.333 0.382-0.238 0.695-0.709 0.695-1.045 0-0.337 0.235-0.612 0.521-0.612 0.364 0 0.522-0.367 0.522-1.216 0-0.985 0.132-1.216 0.695-1.216 0.497 0 0.695-0.232 0.695-0.815 0-0.449 0.313-1.098 0.695-1.444s0.695-0.918 0.695-1.27c0-0.353 0.127-0.642 0.283-0.642s0.544-0.547 0.863-1.216 0.739-1.216 0.933-1.216c0.195 0 0.354-0.529 0.354-1.176 0-0.884 0.172-1.221 0.695-1.358 0.506-0.132 0.695-0.474 0.695-1.257 0-0.752 0.166-1.075 0.553-1.075 0.305 0 0.633-0.302 0.73-0.671 0.096-0.369 0.394-0.755 0.662-0.858 0.268-0.102 0.487-0.65 0.487-1.217 0-0.724 0.206-1.095 0.695-1.25 0.511-0.162 0.695-0.526 0.695-1.373 0-0.86 0.177-1.199 0.695-1.334 0.406-0.106 0.696-0.474 0.696-0.885 0-0.386 0.234-0.937 0.521-1.224s0.521-0.767 0.521-1.067c0-0.301 0.218-0.546 0.484-0.546 0.524 0 0.906-0.728 0.906-1.726 0-0.344 0.313-0.708 0.695-0.808 0.533-0.139 0.695-0.474 0.695-1.43 0-0.879 0.155-1.249 0.522-1.249 0.286 0 0.521-0.133 0.521-0.295 0-0.161 0.313-0.655 0.695-1.095 0.382-0.441 0.695-1.169 0.695-1.617 0-0.466 0.208-0.816 0.484-0.816 0.531 0 0.906-0.73 0.906-1.766 0-0.367 0.218-0.667 0.484-0.667 0.525 0 0.906-0.728 0.906-1.729 0-0.346 0.235-0.719 0.521-0.829 0.287-0.11 0.522-0.44 0.522-0.732 0-0.293 0.312-0.845 0.695-1.227 0.382-0.383 0.695-1.008 0.695-1.391 0-0.382 0.227-0.695 0.505-0.695 0.303 0 0.597-0.488 0.734-1.216 0.131-0.697 0.434-1.216 0.711-1.216 0.274 0 0.482-0.352 0.482-0.815 0-0.448 0.313-1.098 0.696-1.444 0.382-0.346 0.695-0.995 0.695-1.441 0-0.447 0.312-1.008 0.695-1.246 0.382-0.239 0.695-0.709 0.695-1.046 0-0.336 0.227-0.611 0.505-0.611 0.303 0 0.597-0.488 0.734-1.217 0.131-0.696 0.434-1.216 0.711-1.216 0.32 0 0.482-0.41 0.482-1.216 0-0.859 0.156-1.217 0.53-1.217 0.292 0 0.679-0.391 0.86-0.868 0.182-0.478 0.484-0.869 0.671-0.869s0.443-0.548 0.569-1.217c0.13-0.696 0.434-1.216 0.71-1.216 0.32 0 0.483-0.41 0.483-1.216 0-0.985 0.132-1.217 0.695-1.217 0.498 0 0.695-0.231 0.695-0.814 0-0.449 0.313-1.098 0.695-1.444 0.383-0.346 0.695-0.823 0.695-1.06 0-0.236 0.235-0.52 0.522-0.63 0.309-0.119 0.521-0.641 0.521-1.286 0-0.794 0.187-1.135 0.695-1.268 0.522-0.136 0.695-0.474 0.695-1.357 0-0.944 0.137-1.176 0.695-1.176 0.448 0 0.695-0.232 0.695-0.653 0-0.359 0.235-0.847 0.521-1.085 0.287-0.238 0.522-0.649 0.522-0.915 0-0.265 0.312-0.749 0.695-1.077 0.382-0.327 0.695-1.011 0.695-1.52 0-0.632 0.219-0.982 0.695-1.106 0.527-0.138 0.695-0.474 0.695-1.39s0.168-1.253 0.695-1.39c0.382-0.1 0.695-0.415 0.695-0.699s0.234-0.607 0.521-0.717c0.299-0.114 0.521-0.633 0.521-1.213 0-0.72 0.201-1.065 0.696-1.194 0.498-0.131 0.695-0.474 0.695-1.217 0-0.742 0.196-1.085 0.695-1.216 0.458-0.12 0.695-0.474 0.695-1.04 0-0.473 0.234-1.054 0.521-1.292s0.521-0.613 0.521-0.834 0.313-0.669 0.695-0.997c0.383-0.327 0.695-0.969 0.695-1.426 0-0.54 0.245-0.896 0.695-1.014 0.506-0.132 0.695-0.474 0.695-1.257 0-0.697 0.174-1.075 0.494-1.075 0.272 0 0.594-0.458 0.717-1.018 0.124-0.561 0.449-1.205 0.723-1.433 0.275-0.228 0.499-0.708 0.499-1.067 0-0.358 0.218-0.652 0.484-0.652 0.532 0 0.906-0.73 0.906-1.766 0-0.367 0.218-0.667 0.484-0.667 0.532 0 0.906-0.73 0.906-1.766 0-0.366 0.235-0.666 0.522-0.666 0.337 0 0.521-0.339 0.521-0.959 0-0.583 0.273-1.13 0.695-1.393 0.382-0.239 0.695-0.668 0.695-0.953s0.156-0.518 0.347-0.518c0.197 0 0.348-0.985 0.348-2.259v-2.259h-40.275-40.275l-0.223 0.888c-0.123 0.489-7.777 13.977-17.009 29.974s-17.305 30.024-17.94 31.171-11.06 19.254-23.168 40.238c-12.107 20.984-22.014 38.252-22.014 38.374s-0.212 0.468-0.472 0.77-0.964 1.448-1.564 2.547c-2.742 5.021-3.362 6.111-4.449 7.826-0.638 1.007-1.16 1.892-1.16 1.965 0 0.306-30.66 53.237-31.091 53.674-0.395 0.402-0.605 0.266-1.342-0.869-1.039-1.601-35.682-61.636-35.682-61.836 0-0.076-0.522-0.963-1.16-1.97-0.639-1.007-1.632-2.691-2.209-3.742-2.295-4.188-0.144-0.445-26.762-46.569-11.086-19.209-20.752-36.02-21.481-37.358-0.728-1.338-1.846-3.257-2.484-4.264-0.638-1.008-1.16-1.894-1.16-1.971s-5.178-9.105-11.506-20.063-12.505-21.66-13.727-23.782c-1.222-2.123-2.221-4.117-2.221-4.431 0-0.528-3.128-0.572-40.313-0.572h-40.313v2.259m157.46 1.638c0.015 0.437 0.109 0.591 0.209 0.342 0.135-0.339 0.301-0.295 0.656 0.174 0.438 0.576 0.476 0.579 0.486 0.03 6e-3 -0.328-0.301-0.763-0.684-0.968-0.602-0.322-0.691-0.266-0.667 0.422m84.334-0.394c-0.855 0.498-0.789 1.345 0.087 1.116 0.384-0.101 0.695-0.475 0.695-0.837 0-0.753 0.019-0.746-0.782-0.279m-82.45 2.936c0.382 0.298 0.669 0.652 0.637 0.787s7e-3 0.311 0.087 0.391c0.254 0.254 0.144-0.827-0.121-1.188-0.141-0.191-0.49-0.389-0.777-0.439-0.35-0.062-0.293 0.085 0.174 0.449m1.911 3.946c0 0.362 0.31 0.736 0.695 0.836 0.778 0.204 0.938-0.414 0.278-1.073-0.603-0.603-0.973-0.513-0.973 0.237m76.525-0.237c-0.613 0.612-0.51 0.973 0.278 0.973 0.463 0 0.695-0.232 0.695-0.695 0-0.788-0.36-0.891-0.973-0.278m-75.135 2.267c0 0.152 0.313 0.472 0.695 0.71 0.385 0.241 0.695 0.283 0.695 0.096 0-0.186-0.312-0.506-0.695-0.71-0.382-0.205-0.695-0.248-0.695-0.096m73.824 0.245c-0.368 0.269-0.591 0.567-0.495 0.663 0.095 0.095 0.475-0.047 0.843-0.316s0.591-0.567 0.495-0.663c-0.095-0.095-0.475 0.047-0.843 0.316m-0.997 1.914c-0.337 0.372-0.531 0.881-0.431 1.131 0.15 0.374 0.187 0.374 0.209 0 0.015-0.25 0.173-0.365 0.35-0.256 0.322 0.199 0.918-1.119 0.634-1.403-0.082-0.082-0.425 0.155-0.762 0.528m-71.562-0.057c-0.103 0.166 0.118 0.563 0.491 0.882 0.522 0.447 0.677 0.471 0.677 0.105 0-0.608-0.921-1.386-1.168-0.987m1.168 2.349c0 0.293 0.241 0.625 0.536 0.738 0.786 0.301 0.827 0.031 0.101-0.662-0.539-0.515-0.637-0.526-0.637-0.076m69.008 0.014c-0.624 0.624-0.628 0.678-0.06 0.788 0.772 0.148 0.997-0.076 0.848-0.848-0.109-0.568-0.164-0.564-0.788 0.06m-67.618 2.639c0 0.414 0.103 0.65 0.229 0.525 0.125-0.126 0.438-0.055 0.695 0.158 0.51 0.424 0.616 0.055 0.255-0.886-0.313-0.815-1.179-0.666-1.179 0.203m65.893-0.203c-0.374 0.974-0.227 1.204 0.484 0.76 0.382-0.239 0.695-0.631 0.695-0.872 0-0.629-0.929-0.541-1.179 0.112m-0.906 2.23c-0.276 0.171-0.386 0.426-0.245 0.567s0.439 0.074 0.662-0.149c0.525-0.526 0.232-0.819-0.417-0.418m-61.164 4.345c0 0.286 0.234 0.521 0.521 0.521s0.521 0.182 0.521 0.405 0.091 0.315 0.202 0.204c0.272-0.272-0.487-1.652-0.909-1.652-0.184 0-0.335 0.235-0.335 0.522m58.368 0.203c-0.214 0.399-0.297 0.816-0.186 0.927s0.202 3e-3 0.202-0.241c0-0.251 0.226-0.356 0.521-0.243 0.355 0.137 0.521-0.018 0.521-0.484 0-0.896-0.568-0.874-1.058 0.041m-56.978 2.055c0 0.192 0.313 0.661 0.695 1.043 0.791 0.791 0.827 0.741 0.356-0.499-0.33-0.867-1.051-1.241-1.051-0.544m1.69 2.365c0.4 0.28 0.4 0.361 0 0.52-0.319 0.127-0.265 0.197 0.163 0.216 0.729 0.031 0.617-0.729-0.137-0.933-0.413-0.112-0.418-0.078-0.026 0.197m2.133 4.226c0 0.185 0.324 0.509 0.721 0.722 0.66 0.353 0.688 0.324 0.335-0.336-0.397-0.741-1.056-0.982-1.056-0.386m47.877 0.285c-0.108 0.411 0.031 0.621 0.412 0.621 0.316 0 0.596-0.279 0.621-0.621 0.026-0.341-0.159-0.62-0.412-0.62-0.252 0-0.532 0.279-0.621 0.62m-46.487 2.089c0 0.183 0.252 0.543 0.561 0.799 0.486 0.403 0.544 0.378 0.434-0.189-0.13-0.675-0.995-1.206-0.995-0.61m45.376 0.032c-0.105 0.169 0.042 0.501 0.327 0.737 0.43 0.358 0.517 0.306 0.517-0.308 0-0.745-0.494-0.997-0.844-0.429m-44.334 1.897c0 0.316 0.166 0.575 0.368 0.575 0.203 0 0.257 0.18 0.12 0.401-0.146 0.237-0.096 0.307 0.124 0.172 0.204-0.127 0.451-0.034 0.547 0.206 0.102 0.252 0.188 0.275 0.204 0.056 0.015-0.21-0.285-0.742-0.668-1.183-0.555-0.64-0.695-0.685-0.695-0.227m1.39 2.486c0 0.287 0.066 0.521 0.146 0.521s0.411 0.102 0.735 0.227c0.51 0.195 0.536 0.124 0.19-0.521-0.461-0.862-1.071-0.991-1.071-0.227m40.331 0.14c-0.301 0.562-0.25 0.634 0.336 0.481 0.379-0.1 0.689-0.397 0.689-0.661 0-0.698-0.613-0.59-1.025 0.18m-38.941 2.293c0 0.286 0.254 0.521 0.564 0.521 0.462 0 0.486-0.094 0.131-0.521-0.237-0.287-0.491-0.522-0.563-0.522-0.073 0-0.132 0.235-0.132 0.522m37.881 0c-0.355 0.427-0.331 0.521 0.131 0.521 0.31 0 0.564-0.235 0.564-0.521 0-0.287-0.059-0.522-0.132-0.522-0.072 0-0.326 0.235-0.563 0.522m-36.295 2.283c0.722 0.798 0.847 0.826 0.847 0.19 0-0.264-0.327-0.566-0.727-0.671-0.698-0.182-0.702-0.163-0.12 0.481m35.165-0.48c-0.334 0.088-0.608 0.473-0.608 0.858 0 0.889 0.714 0.67 1.085-0.333 0.155-0.421 0.249-0.746 0.207-0.724s-0.349 0.112-0.684 0.199m-33.743 3.349c0.349 0.416 0.678 0.824 0.732 0.908 0.055 0.084 0.043-0.216-0.026-0.666-0.069-0.452-0.397-0.859-0.733-0.908-0.568-0.084-0.567-0.04 0.027 0.666m30.686 1.654c-0.213 0.399-0.297 0.816-0.186 0.927s0.202 0.019 0.202-0.204 0.235-0.405 0.522-0.405c0.286 0 0.521-0.235 0.521-0.521 0-0.756-0.608-0.639-1.059 0.203m-28.481 2.229c0 0.287 0.254 0.522 0.564 0.522 0.462 0 0.486-0.095 0.131-0.522-0.238-0.286-0.491-0.521-0.564-0.521-0.072 0-0.131 0.235-0.131 0.521m27.339-0.289c-0.4 0.4-0.253 0.811 0.289 0.811 0.287 0 0.522-0.235 0.522-0.522 0-0.542-0.411-0.689-0.811-0.289m-24.906 4.394c0 0.309 0.313 0.73 0.695 0.934 0.382 0.205 0.695 0.235 0.695 0.067 0-0.169-0.313-0.589-0.695-0.935-0.613-0.556-0.695-0.563-0.695-0.066m22.415 0.239c-0.348 0.385-0.529 0.803-0.403 0.929 0.126 0.127 0.232 8e-3 0.235-0.262 4e-3 -0.416 0.052-0.418 0.309-0.012 0.238 0.375 0.358 0.312 0.548-0.287 0.335-1.056 0.065-1.201-0.689-0.368m-2.346 3.959c-0.798 0.606-0.775 1.254 0.044 1.254 0.463 0 0.652-0.251 0.652-0.869 0-0.477-0.02-0.863-0.044-0.857s-0.317 0.219-0.652 0.472m-17.541 0.559c-0.036 0.474 0.162 0.695 0.621 0.695 0.808 0 0.901-0.881 0.124-1.179-0.302-0.116-0.582-0.211-0.621-0.211s-0.095 0.313-0.124 0.695m3.715 5.719c0.231 0.279 0.318 0.671 0.194 0.871-0.238 0.385 0.752 0.933 1.084 0.601 0.238-0.238-0.977-1.952-1.395-1.967-0.167-6e-3 -0.114 0.217 0.117 0.495m10.004 0.375c-0.734 0.982-0.758 1.204-0.128 1.204 0.265 0 0.564-0.43 0.665-0.955 0.233-1.216 0.198-1.232-0.537-0.249" fill="#3cbb84"/>
</g>
</svg>
